<svg width="192" height="192" enable-background="new 0 0 24.00 24.00" version="1.1" viewBox="0 0 100 100" xmlns="http://www.w3.org/2000/svg">
	<rect y="-8e-7" width="100" height="100" rx="6" ry="6" fill="#008000" fill-rule="evenodd"/>
	<g transform="matrix(4.6398 0 0 4.6398 12.882 10.562)" fill="#ececec" stroke-width=".11225">
		<path d="m10.555 8.094c-.706.623-1.54.906-2.555.906-1.016 0-1.853-.29-2.559-.914-1.109.363-2.436 1.288-2.437 2.902l-.004 3.012c0 .554.446 1 1 1h8c.554 0 1-.446 1-1v-3c0-1.387-1.102-2.556-2.445-2.906z"/>
		<path d="m11 5a3 3 0 11-6 0 3 3 0 116 0z" overflow="visible"/>
	</g>
</svg>
