<svg version="1.1" viewBox="0 0 100 100" xmlns="http://www.w3.org/2000/svg">
	<rect width="100" height="100" rx="20" ry="20" fill="#008000"/>
	<path d="m46.747 38.849h-6.2938v-3.1469h6.2938zm9.4407 3.1469h-15.734v3.1469h15.734zm15.734-1.5105v26.686c0 1.7308-1.4161 3.1469-3.1469 3.1469h-37.763c-1.7308 0-3.1469-1.4161-3.1469-3.1469v-26.686c0-1.0385.5035-1.9825 1.3217-2.549l4.9721-3.556v-1.8252c0-1.7308 1.4161-3.1469 3.1469-3.1469h3.7763l8.8113-6.2938 8.8113 6.2938h3.7763c1.7308 0 3.1469 1.4161 3.1469 3.1469v1.8252l4.9721 3.556c.84966.59791 1.3217 1.5105 1.3217 2.549zm-34.616 6.2308 12.588 7.8672 12.588-7.8672v-14.161h-25.175zm-6.2938 18.881 14.161-9.4407-14.161-9.4407zm34.616 1.5734-15.734-9.4407-15.734 9.4407zm3.1469-20.455-14.161 9.4407 14.161 9.4407z" fill="#f2f2f2" fill-rule="evenodd"/>
</svg>
