<svg version="1.1" viewBox="0 0 100 100" xmlns="http://www.w3.org/2000/svg">
	<rect width="100" height="100" rx="6" ry="6" fill="#06c167"/>
	<path d="m58.709 68.734-3.5508-30.774h5.2886l-2.6917-10.743 4.1331-1.0356 2.9514 11.778h9.2562l-3.5508 30.774zm-24.856-23.672h11.836c3.922 0 7.1016 3.1794 7.1016 7.1016h-26.039c0-3.9222 3.1795-7.1016 7.1016-7.1016zm18.938 16.57c0 3.9222-3.1796 7.1016-7.1016 7.1016h-11.836c-3.9221 0-7.1016-3.1794-7.1016-7.1016zm-23.672-7.1016h11.836l3.5508 3.5508 3.5508-3.5508h2.3672c1.3074 0 2.3672 1.0598 2.3672 2.3672 0 1.3074-1.0598 2.3672-2.3672 2.3672h-21.305c-1.3074 0-2.3672-1.0598-2.3672-2.3672 0-1.3074 1.0598-2.3672 2.3672-2.3672z" fill="#f2f2f2" fill-rule="evenodd" stroke-linejoin="round"/>
</svg>
