<svg version="1.1" viewBox="0 0 100 100" xmlns="http://www.w3.org/2000/svg">
	<rect width="100" height="100" rx="6" ry="6" fill="#008000"/>
	<path d="m50 71.283 2.1436-8.5743c-9.1859-.53178-17.486-4.4716-19.891-9.6544-.23011 1.3607-.6204 2.6041-1.1708 3.5672-1.8918 3.3107-5.6754 3.3107-9.4589 3.3107 3.1344 0 4.2565-4.4466 4.2565-9.9319s-1.1221-9.9319-4.2565-9.9319c3.7836 0 7.5671 0 9.4589 3.3107.55042.96311.94069 2.2066 1.1708 3.5672 1.8692-4.0287 7.3002-7.306 13.94-8.8158l-4.7063-9.4128c5.6754 0 11.351 0 15.134 1.8918 3.1944 1.5971 5.0403 4.5426 6.6759 7.6981 8.2951 1.9779 15.08 6.4691 15.08 11.693 0 5.3334-7.0726 9.9032-15.604 11.814-2.3541 3.1095-4.6532 6-6.624 7.5766-2.3649 1.8919-4.2565 1.8919-6.1484 1.8919zm14.188-25.539c-1.5672 0-2.8377 1.2704-2.8377 2.8377 0 1.5672 1.2704 2.8377 2.8377 2.8377 1.5673 0 2.8377-1.2704 2.8377-2.8377 0-1.5673-1.2704-2.8377-2.8377-2.8377z" fill="#e6e6e6" stroke-linejoin="round"/>
</svg>
