<svg version="1.1" viewBox="0 0 100 100" height="192" width="192" xmlns="http://www.w3.org/2000/svg">
	<rect y="3.8323e-7" width="100" height="100" rx="6" ry="6" fill="#4688f4" fill-rule="evenodd"/>
	<path d="m74.372 21.867h-4.5221v6.7831c0 1.2662-.99487 2.261-2.261 2.261h-9.044c-1.2662 0-2.261-.99487-2.261-2.261v-6.7831h-13.566v6.7831c0 1.2662-.99487 2.261-2.261 2.261h-9.044c-1.2662 0-2.261-.99487-2.261-2.261v-6.7831h-4.5221c-2.4872 0-4.5221 2.0349-4.5221 4.5221v49.743c0 2.4872 2.0349 4.5221 4.5221 4.5221h49.743c2.4872 0 4.5221-2.0349 4.5221-4.5221v-49.743c0-2.4872-2.0349-4.5221-4.5221-4.5221zm0 54.265h-49.743v-40.699h49.743zm-36.177-49.743h-4.5221v-9.044h4.5221zm27.133 0h-4.5221v-9.044h4.5221zm-22.61 18.088h-4.5221v-4.5221h4.5221zm9.044 0h-4.5221v-4.5221h4.5221zm9.044 0h-4.5221v-4.5221h4.5221zm9.044 0h-4.5221v-4.5221h4.5221zm-36.177 9.044h-4.5221v-4.5221h4.5221zm9.044 0h-4.5221v-4.5221h4.5221zm9.044 0h-4.5221v-4.5221h4.5221zm9.044 0h-4.5221v-4.5221h4.5221zm9.044 0h-4.5221v-4.5221h4.5221zm-36.177 9.044h-4.5221v-4.5221h4.5221zm9.044 0h-4.5221v-4.5221h4.5221zm9.044 0h-4.5221v-4.5221h4.5221zm9.044 0h-4.5221v-4.5221h4.5221zm9.044 0h-4.5221v-4.5221h4.5221zm-36.177 9.044h-4.5221v-4.5221h4.5221zm9.044 0h-4.5221v-4.5221h4.5221zm9.044 0h-4.5221v-4.5221h4.5221zm9.044 0h-4.5221v-4.5221h4.5221z" fill="#f9f9f9" fill-rule="evenodd"/>
</svg>
