<svg version="1.1" viewBox="0 0 100 100" width="16" height="16" xmlns="http://www.w3.org/2000/svg">
	<rect y="-.21186" width="100" height="100" fill="#008000"/>
	<g transform="matrix(.81046 0 0 .81046 12.02 -157.4)" fill="#f9f9f9" stroke-width="5.8078">
		<path d="m51.4 209.39-21.99 27.092 2.379 5.846 19.61-29.234 12.976 21.14 4.076-1.293z"/>
		<path d="m51.332 211.71-.044.097-.098-.027-.03.113-.414.19-.105.028.004.018-.099.046.267.58.014.054-3.541 7.704.766.352 1.687-3.67-1.057 3.943.815.219 1.468-5.48v6.154h.843v-5.563l1.34 5.001.815-.218-1.057-3.943 1.687 3.67.766-.353-3.55-7.725v-.17l.023-.088.266-.58-.099-.045.005-.019-.105-.028z" color="#000000" fill-rule="evenodd" solid-color="#000000" style="font-feature-settings:normal;font-variant-alternates:normal;font-variant-caps:normal;font-variant-ligatures:normal;font-variant-numeric:normal;font-variant-position:normal;isolation:auto;mix-blend-mode:normal;shape-padding:0;text-decoration-color:#000000;text-decoration-line:none;text-decoration-style:solid;text-indent:0;text-orientation:mixed;text-transform:none;white-space:normal"/>
		<path d="m73.269 222.26-19.965 24.844h6.988l12.977-21.14 12.976 21.14h6.989z"/>
		<path d="m73.201 224.58-.044.096-.098-.026-.03.112-.414.19-.105.029.004.018-.099.045.267.58.014.054-3.541 7.704.766.352 1.687-3.669-1.057 3.943.815.218 1.468-5.479v6.153h.843v-5.562l1.34 5 .815-.217-1.057-3.943 1.687 3.669.766-.352-3.55-7.725v-.17l.023-.088.266-.58-.099-.046.005-.018-.105-.028z" color="#000000" fill-rule="evenodd" solid-color="#000000" style="font-feature-settings:normal;font-variant-alternates:normal;font-variant-caps:normal;font-variant-ligatures:normal;font-variant-numeric:normal;font-variant-position:normal;isolation:auto;mix-blend-mode:normal;shape-padding:0;text-decoration-color:#000000;text-decoration-line:none;text-decoration-style:solid;text-indent:0;text-orientation:mixed;text-transform:none;white-space:normal"/>
		<path d="m44.202 231.36-19.965 24.844h6.989l12.976-21.14 12.977 21.14 4.74-2.586z"/>
		<path d="m44.135 233.69-.044.096-.099-.026-.03.112-.413.19-.106.028.005.018-.099.046.267.58.014.054-3.541 7.704.766.352 1.686-3.67-1.056 3.944.814.218 1.468-5.48v6.154h.844v-5.562l1.34 5 .814-.218-1.056-3.942 1.686 3.669.767-.353-3.551-7.724v-.17l.023-.088.267-.58-.099-.046.005-.018-.106-.029z" color="#000000" fill-rule="evenodd" solid-color="#000000" style="font-feature-settings:normal;font-variant-alternates:normal;font-variant-caps:normal;font-variant-ligatures:normal;font-variant-numeric:normal;font-variant-position:normal;isolation:auto;mix-blend-mode:normal;shape-padding:0;text-decoration-color:#000000;text-decoration-line:none;text-decoration-style:solid;text-indent:0;text-orientation:mixed;text-transform:none;white-space:normal"/>
	</g>
	<path d="m31.775 33.823-7.4838 16.426h1.9321l-4.6764 10.66h1.8276l-5.576 11.223h27.954l-5.576-11.223h1.8268l-4.6764-10.66h1.9329z" fill="#f9f9f9" stroke-width="1.78"/>
</svg>
