<svg version="1.1" viewBox="0 0 1188.1 443.51" xmlns="http://www.w3.org/2000/svg">
	<path d="m358.04 221.44c10.303 0 19.928 1.937 28.87 5.815a75.63 75.63 0 0123.718 16.14l-17.599 17.65c-9.734-9.758-21.398-14.638-34.989-14.638-6.868 0-13.306 1.292-19.316 3.873-6.011 2.584-11.271 6.138-15.776 10.66-4.508 4.52-8.083 9.788-10.735 15.82-2.646 6.02-3.969 12.48-3.969 19.364 0 6.89 1.323 13.344 3.969 19.38 2.652 6.02 6.191 11.292 10.628 15.813s9.694 8.067 15.777 10.651c6.079 2.583 12.554 3.873 19.422 3.873 13.45 0 25.114-4.804 34.989-14.419l17.599 17.437c-6.87 6.885-14.778 12.262-23.718 16.142-8.942 3.88-18.567 5.81-28.87 5.81-10.302 0-19.962-1.969-28.977-5.917-9.013-3.949-16.924-9.293-23.717-16.034-6.8-6.747-12.162-14.637-16.097-23.673-3.937-9.045-5.903-18.73-5.903-29.062 0-10.04 1.966-19.617 5.903-28.734 3.935-9.105 9.297-17.068 16.097-23.887 6.793-6.81 14.704-12.19 23.717-16.14 9.015-3.946 18.675-5.924 28.977-5.924z" fill="#414042"/>
	<path d="m558.74 221.44 47.006 93.627 46.578-93.627 46.793 93.627 46.789-93.627h27.69l-74.479 149.37-46.793-93.624-46.578 93.624-74.697-149.37zm276.46 0c20.604 0 38.131 7.322 52.585 21.956 14.737 14.632 22.112 32.216 22.112 52.73 0 20.811-7.375 38.386-22.112 52.734-14.454 14.632-31.98 21.951-52.585 21.951-20.607 0-38.138-7.319-52.588-21.95-14.598-14.494-21.897-32.067-21.897-52.736 0-20.513 7.3-38.097 21.897-52.729 14.306-14.634 31.839-21.956 52.588-21.956zm0 24.97c-13.602 0-25.327 4.878-35.2 14.637-9.591 9.76-14.384 21.451-14.384 35.08 0 13.638 4.793 25.398 14.384 35.298 9.873 9.615 21.599 14.42 35.2 14.42 13.591 0 25.251-4.805 34.986-14.42 9.731-9.899 14.594-21.66 14.594-35.299 0-13.628-4.862-25.319-14.594-35.079-9.735-9.759-21.395-14.638-34.986-14.638zm185.24 124.4-28.76-49.717h-42.076v49.717h-24.681v-149.37h74.479c13.595 0 25.261 4.881 34.99 14.637 9.728 9.758 14.595 21.447 14.595 35.08 0 10.333-2.936 19.732-8.802 28.2-5.722 8.321-13.022 14.278-21.891 17.862l30.692 53.591zm-21.038-124.4h-49.798v49.503l49.798.213c6.732 0 12.525-2.433 17.391-7.312 4.86-4.878 7.3-10.764 7.3-17.655 0-6.74-2.439-12.55-7.3-17.43-4.866-4.877-10.659-7.319-17.391-7.319zm114.19 49.716 74.485 74.687h-34.987l-64.398-64.136v64.136h-24.68v-149.37h24.68v64.355l64.398-64.355h34.987z" fill="#5d7149"/>
	<path d="m433.01 342.92h86.408v11.53h-86.408zm0 19.057h86.408v11.531h-86.408zm3.837-43.018c-10.688-11.204-16.636-25.744-16.636-40.523 0-15.009 5.948-29.556 16.636-40.518 10.938-10.484 25.205-16.449 40.408-16.449 15.694 0 29.957 5.964 40.175 16.45 10.936 10.961 16.877 25.266 16.877 40.517 0 15.258-5.941 29.56-16.877 40.523-10.695 10.725-24.95 16.68-40.175 16.68-14.733 0-29.237-5.956-40.408-16.68zm8.29-40.524c0 18.212 14.476 32.995 32.104 32.995 17.906 0 32.381-14.783 32.381-32.995 0-18.209-14.475-32.988-32.381-32.988-17.629 0-32.104 14.78-32.104 32.988z" fill="#414042"/>
	<g clip-rule="evenodd" fill-rule="evenodd">
		<path d="m89.817 325.18c-5.032.955-6.198-3.533-9.193-5.495-.875.51-1.871 1.087-3.589 2.087-1.656-1.584-3.474-3.332-5.315-5.093.731-1.309 1.436-2.596 2.537-4.584 4.618-2.812 10.61-2.89 16.658-2.76 4.979.107 9.982.282 14.949-.052 4.393-.302 9.406-.119 12.971-2.182 5.712-3.3 9.378-.602 13.989 2.41v-6.313c-7.427.881-14.597.434-22.084 1.717-11.745 2.024-23.819 4.126-36.861 1.88-1.451-1.735-3.584-4.27-6.318-7.52-.131-1.98-1.028-5.412 3.543-8.144 2.803.604 6.421 1.378 11.005 2.352 1.135-1.07 2.49-3.197 4.398-3.949 1.926-.766 4.381-.162 7.108-.162l-4.527-7.713c-3.302 1.5-6.302 2.851-9.55 4.316-3.198-2.707-6.898-4.473-5.957-10.142 2.236-.228 4.678-.479 7.547-.768l3.489-5.812c6.619 1.577 13.789 2.562 20.404 5.052 6.528 2.446 12.425 6.608 20.899 7.205a4795.9 4795.9 0 01-7.12-10.41c-5.619 0-11.25.583-16.698-.17-5.161-.719-10.137-2.855-15.962-4.597-1.799-2.302-4.302-5.509-6.726-8.61 1.135-5.836 5.985-3.81 10.04-4.63-.84-1.25-1.446-2.137-2.423-3.58a1753.5 1753.5 0 013.681-4.672c-3.606-3.219-7.353-6.583-10.772-9.652-1.355-3.775-.016-6.067 3.113-8.007 2.348 1.437 4.851 2.983 7.346 4.523.289-.36.578-.716.872-1.068-1.336-1.569-2.656-3.12-4.367-5.138.98-1.238 1.943-2.455 3.138-3.948 6.766 4.087 13.476 8.148 20.304 12.268 2.252-4.06-.37-5.86-2.684-6.28-9.189-1.668-14.742-9.105-22.549-12.892 3.468-5.66 3.468-5.66 8.694-3.817 4.27 1.51 8.544 3.006 13.501 3.516-2.781-2.126-5.293-5.248-8.429-6.143-5.439-1.547-5.374-6.294-7.859-9.45 3.8-3.452 6.929-.359 9.051.931 3.217 1.942 6.073 2.466 8.952.898 3.799-2.078 8.637-2.32 11.199-.673 4.374 2.83 8.374 0 12.377 2.207.396-1.81.603-2.716.894-4.059-7.647-2.129-16.529 2.094-23.126-4.56-.668.621-1.374 1.268-2.257 2.08-5.647-1.7-9.754-4.824-10.83-11.269-.292-1.71-2.041-3.118-2.762-4.829-.684-1.647-.903-3.499-1.63-6.523 3.926.94 6.807 1.638 10.045 2.421v-5.41c3.044-.34 5.741-.633 10.481-1.167-4.832-1.795-7.706-2.853-12.155-4.509a1865.3 1865.3 0 00-5.462-6.049c.527-.934 1.261-2.224 2.565-4.537 2.113-.128 5.261-.308 9.569-.56-5.16-4.8-7.541-10.022-6.302-17.008.687-.64 1.856-1.729 3.154-2.93 1.382.674 2.68 1.305 4.324 2.095v-8.004c2.511.54 5.267.302 6.301 1.524 2.938 3.463 6.145 2.844 10.459 1.974a5086.4 5086.4 0 01-8.164-7.112c-.562-2.002-1.317-5.344-2.433-8.566-1.06-3.067-6.055-4.646-3.054-9.833 2.658.62 5.537 1.288 10.29 2.401-3.248-3.266-5.352-5.389-6.951-6.992.891-4.043 1.634-7.375 2.552-11.532 1.589.931 3.392 1.49 4.427 2.71 1.373 1.62 2.142 3.747 3.806 6.841 2.21-7.878-2.207-12.254-5.054-17.109.928-4.106 4.101-4.477 7.273-4.067 2.257-5.147 1.433-10.696 5.731-15.135l8.142-6.7c3.756 3.933 8.516 7.442 8.949 14.038.084 1.326 2.429 2.572 3.843 3.72 1.226 1.001 2.603 1.806 3.762 2.602-.727 3.767-1.417 7.33-2.407 12.424 2.087-1.679 2.752-2.209 3.442-2.769 4.74 2.206 2.687 6.602 3.21 10.607a1438 1438 0 01-5.715 4.766v8.233c1.618-.857 2.89-1.55 4.213-2.256 3.312 8.567 8.569 16.014 15.144 21.092v6.935a2482.5 2482.5 0 01-6.073 3.715c2.8.331 5.129.604 7.502.881l2.804 5.433c0 2.308.326 5.364-.104 8.28-.355 2.365-1.633 4.578-3.104 8.433 2.749-1.302 3.918-1.855 6.267-2.969.414 1.193.979 2.831 1.537 4.468.423-.38.843-.758 1.257-1.138v14.515c-1.129.9-2.684 2.12-3.869 3.053v5.656c-5.973 0-11.958 0-17.777-.425-3.025-1.534-6.205-2.638-9.886-3.904 1.866 6.205 6.346 3.782 9.886 3.904 4.154 4.738 9.569 4.568 15.171 4.351a903.02 903.02 0 002.605-3.926h4.985c1.64 1.654 3.286 3.301 4.324 4.341-2.226 4.33-4.33 8.43-6.437 12.525.326.205.661.406.991.604-2.618 2.5-5.236 5-9.416 8.982 3.173-.915 4.75-.944 5.7-1.732 2.286-1.909 4.28-4.166 6.437-6.329 1.578.653 3.173 1.32 5.625 2.335-.837 4.672-1.696 9.543-2.605 14.63-1.953 1.95-4.06 4.067-6.217 6.23-1.78.328-3.603.664-5.415 1 0 .352 0 .708.01 1.05 3.8.191 7.597.38 11.854.587.088 1.69.154 3.257.232 4.845 1.881 1.887 3.753 3.767 6.032 6.05-2.088 1.345-4.082 2.621-5.759 3.7 3.061 1.593 6.355 3.301 9.594 4.99v6.941c2.348 1.471 4.205 2.627 6.619 4.15-3.728 2.804-7.004 5.26-10.256 7.72 3.371 3.378 6.766 6.772 10.403 10.42-3.439 5.634-7.59 9.23-14.002 11.091-4.756-3.3-10.541-1.923-17.692-2.275 9.258 4.062 9.258 4.062 20.032 4.162.934.95 1.877 1.887 2.85 2.871-1.32 1.403-2.646 2.813-3.96 4.196 3.069 5.125 3.069 5.125 8.105 7.813-.188 1.43.153 3.448-.696 4.461-3.903 4.71-13.563 7.18-19.602 5.287-3.618-1.138-6.992-1.628-9.76 2.452 2.069.617 4.028 1.15 5.954 1.761.878.283 1.85 1.201 2.527.993 7.073-2.125 14.554-3.094 21.113-6.709 1.16-.647 1.521-2.635 2.374-3.929 2.079-3.17 4.236-6.292 6.29-9.318 4.712 2.111 3.577 6.095 3.595 8.972 1.65 1.647 2.825 2.83 3.989 4-.824 3.313-1.652 6.645-2.59 10.45a27343 27343 0 00-17.122 18.265h-7.152c.361.48.731.962 1.101 1.446a728.88 728.88 0 01-4.402 1.585c8.905-2.15 15.197.408 20.828 7.073-.885 2.056-1.744 4.031-2.594 6h-14.616a8388.3 8388.3 0 00-15.695 10.222h-6.531c-1.85-1.859-4.101-4.112-5.537-5.552-5.079.844-29.346 13.91-29.346-2.942-2.125.786-3.468 1.265-5.073 1.861-7.7-5.376-14.977-4.282-24.361 4.615-4.17.24-7.061-2.063-10.143-4.496-2.357-1.849-5.054-3.356-8.48-3.589-11.187-.724-14.595-3.434-19.859-14.828 1.123-.986 2.456-3.023 3.497-2.88 4.625.63 6.461-2.962 8.731-5.482 2.953-3.267 5.251-7.096 8.254-10.856 2.147-.177 4.7-.177 8.327-.177-2.047-1.842-3.307-2.998-5.089-4.609-1.184 1.932-2.037 3.327-3.238 4.786zm93.979-79.489c2.593-.34 4.803-.623 7.667-.984-1.718-1.632-2.666-2.519-3.161-3.002-4.737.915-8.985 1.726-14.598 2.81 2.784 2.01 4.688 3.38 6.55 4.735 1.292-1.3 2.226-2.232 3.542-3.559zm-74.132 14.99c-3.834-1.666-7.167-3.235-10.606-4.537-1.443-.55-3.104-.569-4.675-.694-.182-.013-.433.848-.665 1.326 5.081 1.317 8.991 6.445 15.946 3.905zm47.263-45.969c9.591.855 9.591.855 9.952-.5-1.615-.828-3.213-1.658-4.797-2.475-1.436.828-3.095 1.774-5.155 2.975z" fill="#5d7149"/>
		<path d="m938.94 158.19c-38.959-23.333-79.621-43.854-120.88-63.87-11.07-5.37-22.172-10.696-33.415-15.77-8.27-3.733-16.136-7.967-24.644-11.376-19.2-7.684-38.439-8.133-57.86.218-10.029 4.313-20.637 7.995-31.24 11.563-21.272 7.158-42.467 7.277-62.494-2.173-23.187-10.95-46.588-21.75-68.737-33.714-27.945-15.104-57.954-32.667-89.535-40.732-13.59-3.474-25.744-2.86-36.954.393-15.508 4.505-29.207 14.062-42.409 24.845-29.436 24.064-58.536 48.441-87.84 72.63-17.103 14.115-37.753 30.05-55.188 43.845-6.77 5.355-13.509 10.745-19.955 16.417-4.866 4.282-25.642 30.182 29.589-5.155 47.506-30.394 76.603-51.909 121.98-84.833 13.234-9.603 26.03-19.679 38.644-29.926 15.857-12.882 29.909-20.967 51.904-15.282 22.404 5.792 43.263 16.161 63.231 26.67 56.13 29.54 108.38 64.874 162.37 97.382 5.16 3.106 62.054 38.868 67.311 35.517 4.481-2.856-17.284-18.695-21.557-22.109-13.803-11.023-68.894-40.407-43.927-61.325 8.169-6.845 24.743-12.942 36.458-16.756 24.572-8 33.786-2.02 55.554 7.351 67.942 29.247 79.218 37.983 146.58 69.992 4.625 2.197 53.307 27.448 57.918 22.74 3.884-3.965-29.883-23.54-34.894-26.542z" fill="#414042"/>
		<path d="m103.36 342.82c-1.442 1.302-2.461 2.237-4.117 3.728 2.932 0 4.995 0 6.731.14 2.43 3.042 4.289 6.136 6.678 8.783 1.834 2.03 3.317 4.941 7.061 4.433.84-.119 1.916 1.528 2.825 2.32-4.258 9.217-7.011 11.406-16.06 11.991-2.768.188-4.947 1.407-6.854 2.904-2.492 1.962-4.831 3.828-8.198 3.634-7.59-7.19-13.469-8.079-19.696-3.734-1.298-.479-16.99 8.784-16.99 2.685-3.505-.578-6.731-1.125-10.838-1.805-1.16 1.158-2.979 2.98-4.478 4.482h-5.28a8052.4 8052.4 0 00-12.691-8.26h-11.814c-.686-1.592-1.379-3.189-2.097-4.855 4.552-5.383 9.641-7.457 16.839-5.709-1.185-.428-2.37-.855-3.555-1.289.295-.39.596-.78.887-1.17h-5.781c-5.224-5.565-9.71-10.362-13.846-14.763-.755-3.074-1.423-5.773-2.091-8.45.938-.945 1.89-1.9 3.223-3.232.016-2.327-.903-5.547 2.91-7.257 1.658 2.446 3.402 4.975 5.083 7.532.686 1.052.981 2.66 1.921 3.182 5.302 2.918 11.344 3.711 17.069 5.42.545.171 1.333-.57 2.044-.797 1.555-.498 3.138-.932 4.812-1.423-2.242-3.308-4.967-2.91-7.895-1.987-4.878 1.536-12.688-.47-15.845-4.274-.687-.816-.408-2.45-.562-3.609 4.069-2.175 4.069-2.175 6.55-6.312a723.23 723.23 0 01-3.201-3.396c.787-.793 1.548-1.554 2.304-2.319 8.713-.082 8.713-.082 16.194-3.364-5.782.282-10.459-.83-14.304 1.836-5.183-1.503-8.537-4.408-11.318-8.966 2.941-2.947 5.685-5.69 8.412-8.427-2.627-1.987-5.28-3.97-8.292-6.236 1.95-1.233 3.455-2.164 5.348-3.359v-5.607c2.622-1.364 5.287-2.748 7.757-4.037a2806.1 2806.1 0 01-4.653-2.986l4.873-4.896c.066-1.279.119-2.549.191-3.914l9.584-.47c.003-.284.003-.567.003-.856-1.461-.27-2.935-.54-4.374-.805-1.747-1.748-3.449-3.463-5.029-5.04-.733-4.112-1.429-8.048-2.106-11.824 1.981-.824 3.273-1.362 4.552-1.89 1.74 1.751 3.349 3.575 5.199 5.115.768.642 2.047.66 4.608 1.403a18131 18131 0 00-7.612-7.263c.267-.164.539-.323.803-.49-1.699-3.308-3.402-6.627-5.205-10.124.84-.842 2.169-2.175 3.496-3.514h4.032c.687 1.046 1.383 2.093 2.104 3.178 4.534.175 8.91.313 12.268-3.518 2.859-.1 6.48 1.861 7.989-3.157-2.972 1.024-5.543 1.917-7.989 3.157-4.707.34-9.547.34-14.372.34v-4.573a645.8 645.8 0 01-3.126-2.464v-11.74c.333.31.674.616 1.01.925.455-1.327.915-2.647 1.248-3.612l5.067 2.4c-1.191-3.114-2.226-4.906-2.512-6.818-.348-2.36-.084-4.828-.084-6.696.922-1.776 1.605-3.118 2.27-4.389 1.916-.224 3.8-.446 6.063-.713-2.063-1.26-3.571-2.179-4.91-3.003v-5.608c5.314-4.106 9.569-10.127 12.243-17.053 1.07.57 2.098 1.13 3.409 1.824v-6.655a858.96 858.96 0 01-4.622-3.852c.42-3.242-1.238-6.797 2.596-8.58.555.452 1.09.883 2.777 2.241l-1.944-10.045c.941-.645 2.051-1.298 3.042-2.106 1.145-.926 3.042-1.933 3.107-3.007.348-5.33 4.198-8.169 7.239-11.347 2.39 1.971 4.772 3.926 6.578 5.413 3.474 3.591 2.809 8.077 4.637 12.24 2.561-.334 5.129-.032 5.878 3.287-2.301 3.924-5.869 7.464-4.088 13.833 1.348-2.502 1.969-4.226 3.079-5.533.837-.983 2.295-1.44 3.581-2.188.743 3.357 1.342 6.055 2.063 9.324-1.292 1.295-2.991 3.012-5.618 5.65 3.844-.897 6.17-1.444 8.318-1.945 2.423 4.198-1.615 5.467-2.468 7.951-.903 2.604-1.515 5.31-1.969 6.927-2.477 2.16-4.321 3.77-6.6 5.75 3.486.704 6.08 1.204 8.456-1.597.837-.987 3.063-.792 5.092-1.232v6.474c1.329-.64 2.379-1.152 3.499-1.696 1.051.97 1.994 1.85 2.553 2.372 1 5.646-.925 9.87-5.098 13.751 3.486.202 6.025.346 7.738.452 1.053 1.868 1.648 2.912 2.068 3.667-1.799 1.992-3.593 3.977-4.412 4.892-3.602 1.338-5.922 2.194-9.829 3.641 3.831.434 6.014.672 8.472.942v4.377c2.621-.636 4.95-1.198 8.126-1.957-.593 2.446-.765 3.943-1.323 5.277-.583 1.376-1.994 2.521-2.232 3.898-.869 5.211-4.188 7.736-8.754 9.11l-1.824-1.679c-5.333 5.376-12.513 1.962-18.696 3.684.236 1.09.405 1.82.725 3.282 3.232-1.785 6.468.503 10.005-1.785 2.072-1.33 5.981-1.132 9.054.547 2.33 1.264 4.638.842 7.236-.727 1.715-1.046 4.245-3.549 7.318-.75-2.01 2.55-1.957 6.388-6.355 7.635-2.533.727-4.565 3.25-6.813 4.971 4.007-.415 7.458-1.625 10.917-2.842 4.223-1.496 4.223-1.496 7.025 3.085-6.314 3.06-10.8 9.073-18.228 10.42-1.868.341-3.995 1.794-2.169 5.076 5.518-3.329 10.945-6.612 16.416-9.917.962 1.208 1.744 2.188 2.533 3.194-1.382 1.632-2.452 2.882-3.53 4.154.238.286.477.568.706.864 2.019-1.249 4.042-2.497 5.941-3.659 2.527 1.564 3.612 3.42 2.515 6.473-2.766 2.48-5.794 5.196-8.71 7.806.877 1.107 1.975 2.503 2.975 3.776a409.15 409.15 0 00-1.956 2.896c3.276.66 7.196-.979 8.118 3.74-1.963 2.51-3.982 5.1-5.44 6.961-4.712 1.407-8.732 3.134-12.901 3.712-4.409.613-8.961.142-13.504.142a3704.3 3704.3 0 01-5.753 8.42c6.847-.483 11.62-3.849 16.893-5.829 5.349-2.013 11.146-2.808 16.498-4.084 1.097 1.833 2.02 3.361 2.822 4.697 2.32.235 4.295.44 6.101.62.759 4.582-2.232 6.016-4.815 8.204-2.627-1.188-5.054-2.282-7.723-3.49-1.06 1.8-2.179 3.71-3.662 6.232 2.205 0 4.192-.484 5.747.131 1.546.611 2.64 2.327 3.559 3.195 3.705-.787 6.631-1.415 8.895-1.898 3.7 2.205 2.972 4.98 2.865 6.583-2.207 2.622-3.934 4.671-5.11 6.073-10.541 1.816-20.304.12-29.797-1.516-6.058-1.043-11.852-.678-17.855-1.39v5.101c3.729-2.435 6.694-4.616 11.309-1.943 2.884 1.665 6.936 1.521 10.484 1.76 4.02.277 8.064.132 12.089.044 4.892-.106 9.732-.044 13.466 2.233a771.67 771.67 0 002.051 3.703 962.66 962.66 0 00-4.292 4.125c-1.392-.812-2.198-1.283-2.906-1.692-2.417 1.585-3.364 5.213-7.434 4.44-.971-1.177-1.661-2.306-2.617-3.866zm-70.5-57.52c1.512-1.094 3.048-2.2 5.296-3.823-4.537-.88-7.97-1.533-11.801-2.276-.398.393-1.167 1.112-2.555 2.428 2.314.292 4.101.522 6.195.795 1.065 1.07 1.825 1.826 2.865 2.876zm69.964 6.086c-.188-.385-.392-1.082-.537-1.075-1.272.106-2.615.118-3.781.564-2.781 1.051-5.474 2.32-8.575 3.666 5.622 2.056 8.785-2.089 12.893-3.155zm-55.272-36.412c-1.279.66-2.574 1.33-3.875 2 .292 1.094.292 1.094 8.045.402a729.43 729.43 0 00-4.17-2.402zm133.1 111.62c-3.179.61-3.916-2.226-5.803-3.465l-2.27 1.32c-1.041-1-2.191-2.106-3.352-3.219.464-.824.906-1.636 1.603-2.893 2.915-1.773 6.696-1.824 10.513-1.742 3.145.07 6.298.183 9.437-.03 2.774-.189 5.935-.076 8.186-1.378 3.606-2.08 5.919-.378 8.829 1.522v-3.986c-4.69.553-9.211.27-13.939 1.081-7.408 1.282-15.033 2.608-23.26 1.188-.919-1.094-2.267-2.69-3.991-4.748-.084-1.243-.649-3.414 2.232-5.136 1.769.383 4.054.867 6.948 1.483.714-.672 1.573-2.018 2.778-2.489 1.213-.484 2.766-.102 4.486-.102-1.154-1.974-2.032-3.464-2.859-4.873-2.082.951-3.976 1.8-6.026 2.724-2.016-1.704-4.355-2.824-3.76-6.4 1.411-.139 2.951-.297 4.763-.485.627-1.043 1.345-2.238 2.201-3.666 4.176.994 8.703 1.617 12.879 3.188 4.12 1.54 7.842 4.174 13.193 4.546a1887.6 1887.6 0 01-4.496-6.57c-3.549 0-7.102.371-10.541-.106-3.254-.453-6.396-1.805-10.074-2.899-1.142-1.459-2.711-3.477-4.245-5.439.718-3.685 3.778-2.4 6.336-2.917-.527-.792-.912-1.352-1.53-2.264.787-.992 1.64-2.08 2.326-2.949-2.276-2.03-4.643-4.149-6.8-6.092-.856-2.38-.01-3.827 1.959-5.05 1.486.905 3.066 1.88 4.64 2.855.183-.229.364-.453.552-.673l-2.759-3.245a501.91 501.91 0 011.981-2.492l12.817 7.742c1.423-2.564-.238-3.7-1.696-3.968-5.8-1.049-9.303-5.743-14.228-8.129 2.185-3.578 2.185-3.578 5.483-2.412 2.7.953 5.396 1.896 8.521 2.22-1.755-1.343-3.338-3.316-5.32-3.88-3.433-.97-3.392-3.97-4.96-5.964 2.398-2.182 4.374-.226 5.716.59 2.025 1.225 3.831 1.555 5.649.567 2.395-1.313 5.449-1.466 7.064-.427 2.762 1.785 5.289 0 7.816 1.392.245-1.14.379-1.712.561-2.562-4.825-1.345-10.431 1.321-14.592-2.879-.426.393-.868.798-1.426 1.314-3.562-1.076-6.158-3.044-6.835-7.11-.182-1.079-1.289-1.97-1.743-3.048-.433-1.04-.571-2.21-1.035-4.115 2.48.591 4.299 1.031 6.346 1.527v-3.42c1.921-.208 3.621-.397 6.615-.732-3.051-1.132-4.866-1.8-7.675-2.845a833.63 833.63 0 00-3.449-3.82c.336-.588.797-1.405 1.618-2.864 1.339-.082 3.323-.194 6.044-.352-3.257-3.03-4.759-6.326-3.979-10.733.433-.41 1.17-1.094 1.991-1.85.871.422 1.689.821 2.73 1.321v-5.055c1.583.347 3.324.195 3.976.962 1.856 2.188 3.878 1.798 6.603 1.248a2316 2316 0 01-5.157-4.486c-.355-1.263-.828-3.377-1.534-5.41-.668-1.937-3.821-2.93-1.925-6.207 1.675.394 3.493.814 6.497 1.518-2.05-2.062-3.379-3.4-4.389-4.413.562-2.554 1.028-4.656 1.605-7.278 1.006.585 2.145.941 2.8 1.707.865 1.025 1.351 2.368 2.401 4.32 1.396-4.974-1.392-7.733-3.188-10.796.586-2.593 2.586-2.83 4.586-2.572 1.427-3.244.906-6.746 3.622-9.55 1.411-1.164 3.27-2.689 5.135-4.229 2.374 2.48 5.38 4.7 5.65 8.862.056.836 1.533 1.622 2.427 2.346.774.631 1.643 1.137 2.374 1.644-.461 2.377-.894 4.625-1.518 7.845 1.313-1.063 1.737-1.396 2.169-1.752 2.995 1.394 1.699 4.166 2.026 6.697a1043.8 1043.8 0 01-3.606 3.007v5.194c1.022-.54 1.825-.978 2.659-1.424 2.091 5.408 5.411 10.11 9.56 13.314v4.376c-1.048.647-2.22 1.361-3.835 2.345 1.768.207 3.239.383 4.734.56.518.993 1.057 2.037 1.772 3.424 0 1.461.203 3.385-.066 5.227-.22 1.491-1.029 2.893-1.959 5.321 1.74-.82 2.474-1.17 3.957-1.872.257.751.618 1.787.972 2.821.263-.239.532-.48.79-.716v9.161c-.712.565-1.693 1.336-2.443 1.923v3.571c-3.765 0-7.546 0-11.217-.27-1.913-.969-3.917-1.667-6.24-2.462 1.176 3.914 4.004 2.387 6.24 2.462 2.621 2.992 6.035 2.886 9.575 2.748.564-.85 1.11-1.667 1.643-2.479h3.148c1.035 1.044 2.072 2.081 2.73 2.741-1.407 2.73-2.736 5.321-4.063 7.904.204.133.417.256.624.381-1.649 1.578-3.305 3.153-5.944 5.668 2.003-.575 3-.59 3.599-1.094 1.445-1.2 2.703-2.629 4.061-3.993 1 .416 2.006.834 3.555 1.476-.53 2.947-1.073 6.02-1.649 9.232-1.229 1.227-2.559 2.57-3.922 3.931-1.123.208-2.273.421-3.417.635 0 .22 0 .443.003.663 2.405.116 4.797.236 7.484.368.053 1.068.097 2.057.15 3.056 1.188 1.194 2.364 2.383 3.803 3.823-1.316.848-2.574 1.653-3.634 2.332 1.928 1.007 4.01 2.081 6.058 3.15v4.376c1.477.932 2.652 1.66 4.176 2.623-2.355 1.772-4.424 3.318-6.475 4.872 2.125 2.132 4.271 4.275 6.565 6.577-2.169 3.56-4.788 5.83-8.835 6.998-3-2.08-6.653-1.207-11.167-1.434 5.843 2.566 5.843 2.566 12.644 2.63.589.597 1.185 1.187 1.8 1.81a729.39 729.39 0 01-2.502 2.647c1.938 3.23 1.938 3.23 5.114 4.93-.116.905.101 2.182-.436 2.821-2.464 2.97-8.562 4.528-12.372 3.334-2.285-.716-4.414-1.032-6.16 1.553 1.304.383 2.543.717 3.759 1.107.551.182 1.163.754 1.593.627 4.464-1.338 9.186-1.955 13.324-4.23.734-.415.966-1.666 1.499-2.483 1.313-2.007 2.674-3.974 3.969-5.886 2.976 1.333 2.257 3.85 2.27 5.665a488.18 488.18 0 012.518 2.528c-.521 2.087-1.044 4.193-1.633 6.59-3.227 3.44-6.731 7.186-10.811 11.531h-4.514c.232.302.464.61.696.911-.922.34-1.85.673-2.775 1.006 5.618-1.363 9.591.252 13.143 4.458-.561 1.303-1.101 2.547-1.637 3.792h-9.221c-3.069 1.993-6.217 4.037-9.907 6.452h-4.123a1279.6 1279.6 0 00-3.496-3.509c-3.208.533-18.523 8.783-18.523-1.855-1.342.497-2.191.8-3.205 1.176-4.856-3.395-9.446-2.704-15.372 2.91-2.631.152-4.456-1.3-6.399-2.835-1.49-1.169-3.195-2.119-5.355-2.264-7.063-.466-9.211-2.176-12.535-9.362.706-.623 1.546-1.91 2.208-1.817 2.919.396 4.075-1.873 5.511-3.457 1.865-2.06 3.319-4.482 5.212-6.858 1.354-.107 2.966-.107 5.255-.107-1.295-1.164-2.088-1.892-3.214-2.912-.746 1.222-1.285 2.101-2.041 3.02zm59.317-50.169c1.636-.208 3.032-.39 4.837-.616-1.085-1.03-1.687-1.592-1.998-1.893-2.988.572-5.668 1.088-9.211 1.773a2591.7 2591.7 0 014.132 2.986 672.61 672.61 0 012.24-2.25zm-46.791 9.462c-2.421-1.05-4.525-2.044-6.697-2.86-.912-.353-1.956-.358-2.95-.44-.113-.006-.272.534-.417.836 3.207.836 5.671 4.074 10.064 2.464zm29.829-29.014c6.055.541 6.055.541 6.28-.313-1.016-.525-2.025-1.048-3.025-1.563-.907.521-1.954 1.12-3.255 1.876z" fill="#5d7149"/>
	</g>
	<g fill="#414042" stroke-width="2.096" aria-label="WORK WHERE YOU PLAY">
		<path d="m641.04 391.08q1.9287.92243 1.9287 2.6834 0 1.174-1.0063 3.1866-1.2578 2.6834-1.3417 3.0188-2.0126 6.2054-3.8574 18.868-1.761 12.662-3.6058 18.616-.50314 1.6771-2.8511 1.6771-1.0901 0-1.9287-.41928-3.1027-1.5933-4.4444-6.2054-.0839-.41928-1.5933-8.3857-.75472-4.1928-1.4256-8.9727-1.174 2.348-3.1027 11.656-1.6771 8.0503-3.9413 10.231-.67086.67086-2.348.16771-2.5157-.33542-3.3543-3.0188-.50314-2.348-1.0063-4.696-1.5094-6.0377-2.4318-18.784-.83857-12.746-2.348-18.616-.25157-1.0063.25157-1.9287.50314-.92243 1.4256-1.0063.67086-.16771 1.3417-.16771 2.348 0 3.6058 2.0964 1.3417 7.044 3.1866 27.421.67085-1.4256 1.5094-5.283.92243-3.9413 1.761-5.7023.75471-3.1866 1.4256-6.3731 1.0063-3.8574 4.1928-3.8574.83857 0 1.8448.25157.0839.50314.75472.587.67085.0839.75471.25157 1.8448 4.109 2.7673 10.985 1.4256 9.7274 1.761 11.237 1.3417-7.4633 2.7673-14.843 1.761-8.6373 4.5283-14.088.587-1.0901 2.4318-1.0901 1.3417 0 2.348.50314z"/>
		<path d="m675.01 416.15q-4.9476 11.153-14.004 13.249-1.0901.25157-2.1803.25157-4.7798 0-9.6436-5.1991-3.2704-3.522-3.2704-9.1404 0-6.2054 3.6897-13.333 1.5933-3.0188 3.8574-5.1991 2.5996-2.5996 4.9476-2.5996 1.3417 0 2.5157 1.0063 1.174 1.0063 6.2893 2.6834 4.0251 1.3417 5.7023 4.5283 2.935 5.6184 2.935 9.6436 0 2.2641-.83857 4.109zm-6.7086-5.1991q-.587-6.1216-3.2704-7.2956-.41929-.16771-.75471-.16771-1.0063 0-2.5157 1.6771-1.6771 1.9287-2.5996 2.2641-.587.25157-1.6771-.50314-1.0901-.75472-1.4256-.75472-.25157 0-.41928.16772-2.935 2.5157-2.935 7.7987 0 3.6058 1.6771 6.1216 2.348 3.4381 3.9413 3.4381 3.6897 0 7.1278-4.6121 3.2704-4.3606 2.8511-8.1341z"/>
		<path d="m712.97 434.85q.25157.33543.25157.75471 0 1.9287-4.0251 2.935-4.4444-3.4381-11.069-10.566-7.3794-7.9664-10.985-11.069-.25157 2.1803-.92243 11.405-.41928 6.9601-1.5094 11.069-.16772 0-1.0901.41928-.83857.41929-1.4256.25157-3.6897-.83857-3.6897-5.1153 0-1.2578.33543-3.3543.33542-2.4318.41928-3.0188.33543-4.8637.41929-11.572v-9.1404q0-11.405 1.2578-19.203.83857-5.1991 9.8113-4.7798 4.5283.16771 7.8826 4.5283 3.1027 4.0251 3.1027 8.7211 0 3.9413-2.935 7.8826-2.5157 3.522-6.2054 5.5346-1.5094.83857-1.5094 1.8448 0 1.0901 1.761 2.5996 1.3417 1.0901 2.6834 2.1803.0839.0839 9.2243 8.3857 5.7861 5.1991 8.218 9.3081zm-17.694-37.652q.25157-1.5094.16771-2.6834-.25157-1.761-1.5094-3.1866-1.174-1.4256-3.8574-1.4256-2.0126 0-2.5157 1.2579-.41928 2.0964-.41928 4.7798 0 1.0901.25157 5.6184.16771 3.4381 0 5.6184 6.9601-5.1991 7.8826-9.979z"/>
		<path d="m737.42 429.65q.50314.41929.50314 1.174 0 .50314-.67086 2.5157-.33542-.0839-.58699-.0839-.50315 0-1.3417.41929-.75471.41928-1.174.41928-.41929 0-.92243-.33542-5.6184-3.522-17.442-10.566.25157 3.1027.41929 8.8888 0 .67085.16771 2.0126.16771 1.3417.16771 1.9287 0 2.0126-1.761 2.7673-.50314.33542-1.4256.33542-1.0063 0-1.2579-.58699-2.1803-.75472-2.5157-2.935-1.0063-6.0377-1.0063-14.172 0-2.935.16771-8.7211.16772-5.87.16772-8.805 0-8.8888-1.174-15.43-.16771-1.0063 1.174-1.3417 1.0063-.16771 2.0964-.33542 1.0901.33542 2.2641.83857 1.174.41928 1.2579 1.4256 1.2578 11.405 1.0901 18.113 3.4381-3.1027 7.8826-8.218 3.7736-4.2767 7.4633-8.6373 1.0063-.41929 2.1803-.41929 3.2704 0 3.4381 2.2641-2.348 5.1991-9.2243 12.327-8.0503 8.3018-10.314 11.824 5.1991 3.1027 10.482 6.2054 5.87 3.6897 9.8951 7.1278z"/>
		<path d="m797.29 391.08q1.9287.92243 1.9287 2.6834 0 1.174-1.0063 3.1866-1.2578 2.6834-1.3417 3.0188-2.0126 6.2054-3.8574 18.868-1.761 12.662-3.6059 18.616-.50314 1.6771-2.8511 1.6771-1.0901 0-1.9287-.41928-3.1027-1.5933-4.4444-6.2054-.0839-.41928-1.5933-8.3857-.75471-4.1928-1.4256-8.9727-1.174 2.348-3.1027 11.656-1.6771 8.0503-3.9413 10.231-.67085.67086-2.348.16771-2.5157-.33542-3.3543-3.0188-.50314-2.348-1.0063-4.696-1.5094-6.0377-2.4318-18.784-.83857-12.746-2.348-18.616-.25158-1.0063.25157-1.9287.50314-.92243 1.4256-1.0063.67085-.16771 1.3417-.16771 2.348 0 3.6058 2.0964 1.3417 7.044 3.1866 27.421.67086-1.4256 1.5094-5.283.92243-3.9413 1.761-5.7023.75471-3.1866 1.4256-6.3731 1.0063-3.8574 4.1928-3.8574.83857 0 1.8448.25157.0839.50314.75471.587.67086.0839.75472.25157 1.8448 4.109 2.7673 10.985 1.4256 9.7274 1.761 11.237 1.3417-7.4633 2.7673-14.843 1.761-8.6373 4.5283-14.088.587-1.0901 2.4319-1.0901 1.3417 0 2.348.50314z"/>
		<path d="m831.42 387.39q-.16771 7.4633-2.4318 23.648-2.0964 15.346-2.0964 23.564 0 2.5996.16772 4.9476 0 .587-.50315 1.0901-.50314.587-1.174.587-2.348 0-3.1027-.41929-3.1866-1.8448-3.1866-6.9601 0-1.0063.0839-3.1027.16771-2.1803.16771-3.1866 0-1.6771.41929-5.1153.41928-3.4381.41928-5.283-1.174.0839-3.2704-.33543-2.0126-.41928-2.935-.41928-1.0901 0-2.0964.33542-2.0126 6.6247-2.348 19.539-2.8511 1.174-5.5346-.25157-1.9287-1.0063-1.9287-4.0251 0-.67086.0839-1.761.16771-1.174.16771-1.4256.25157-4.5283 1.9287-17.945 1.4256-11.237 1.3417-17.862 0-.92242 1.2579-1.174 1.3417-.25158 1.5094-.50315.50314.587 2.4318 1.0063 1.5933.33543 1.9287 1.5094.67086 2.0964.67086 4.696 0 1.8448-.587 5.87-.50315 3.9413-.50315 6.0377 1.0063.75471 2.5157.92243 1.0063.16771 2.8511.0839 2.4319-.16771 2.935-.16771 2.0964-8.805 3.6897-22.809.33542-2.935 2.0964-2.935 4.4444-.41929 5.0314 1.8448z"/>
		<path d="m865.66 392.34q-3.1027 1.2578-9.1404 2.935-6.0377 1.6771-9.1404 2.935-.75472 2.1803-1.0901 9.7274 1.3417.50314 3.1027.50314 1.2578 0 3.9413-.41928 2.6834-.41929 3.9413-.41929 2.348 0 4.0251 1.0063 1.174 1.6771 1.174 2.1803 0 .587-.587.92242-.16771.0839-1.174 1.174-.67085.75472-1.6771.67086-1.761.41928-6.457.50314-3.9413.0839-6.2893 1.0063-1.5933 6.2054-1.5933 9.8113 0 2.4319.67086 3.8574 3.9413 2.7673 13.669 2.348.67086 0 1.4256-.587.75471-.67085 1.2579-.67085 2.348-.50314 3.1027 3.522.25158 1.3417-.50314 2.4318-.67085 1.174-2.0126 1.2579-10.147.33543-17.61-1.5933-2.348-.587-4.2767-2.5996t-2.1803-4.5283q-.75471-7.2956 0-13.082-2.348-1.5933-2.0964-3.1027.0839-.75471 1.2578-1.3417 1.2579-.67086 1.4256-1.3417.16772-.67086.67086-7.9664-4.696-.92243-4.6121-3.522.0839-2.4319 2.935-3.8574 2.6834-1.0901 5.3668-2.1803 3.1027-1.5933 7.7987-2.8511 4.109-1.0901 8.218-2.0964.41928-.0839 1.0063-.0839 2.2641 0 5.283 1.761.0839.33543.41929 1.2578.33542.92243.33542 1.3417 0 .67085-.587 1.0901z"/>
		<path d="m901.65 434.85q.25157.33543.25157.75471 0 1.9287-4.0251 2.935-4.4444-3.4381-11.069-10.566-7.3794-7.9664-10.985-11.069-.25157 2.1803-.92243 11.405-.41928 6.9601-1.5094 11.069-.16771 0-1.0901.41928-.83857.41929-1.4256.25157-3.6897-.83857-3.6897-5.1153 0-1.2578.33542-3.3543.33543-2.4318.41929-3.0188.33543-4.8637.41928-11.572v-9.1404q0-11.405 1.2579-19.203.83857-5.1991 9.8113-4.7798 4.5283.16771 7.8826 4.5283 3.1027 4.0251 3.1027 8.7211 0 3.9413-2.935 7.8826-2.5157 3.522-6.2054 5.5346-1.5094.83857-1.5094 1.8448 0 1.0901 1.761 2.5996 1.3417 1.0901 2.6834 2.1803.0838.0839 9.2243 8.3857 5.7861 5.1991 8.218 9.3081zm-17.694-37.652q.25157-1.5094.16771-2.6834-.25157-1.761-1.5094-3.1866-1.174-1.4256-3.8574-1.4256-2.0126 0-2.5157 1.2579-.41928 2.0964-.41928 4.7798 0 1.0901.25157 5.6184.16771 3.4381 0 5.6184 6.9601-5.1991 7.8826-9.979z"/>
		<path d="m926.09 392.34q-3.1027 1.2578-9.1404 2.935-6.0377 1.6771-9.1404 2.935-.75471 2.1803-1.0901 9.7274 1.3417.50314 3.1027.50314 1.2579 0 3.9413-.41928 2.6834-.41929 3.9413-.41929 2.348 0 4.0251 1.0063 1.174 1.6771 1.174 2.1803 0 .587-.587.92242-.16771.0839-1.174 1.174-.67086.75472-1.6771.67086-1.761.41928-6.457.50314-3.9413.0839-6.2893 1.0063-1.5933 6.2054-1.5933 9.8113 0 2.4319.67085 3.8574 3.9413 2.7673 13.669 2.348.67085 0 1.4256-.587.75472-.67085 1.2579-.67085 2.348-.50314 3.1027 3.522.25157 1.3417-.50314 2.4318-.67086 1.174-2.0126 1.2579-10.147.33543-17.61-1.5933-2.348-.587-4.2767-2.5996t-2.1803-4.5283q-.75471-7.2956 0-13.082-2.348-1.5933-2.0964-3.1027.0839-.75471 1.2579-1.3417 1.2578-.67086 1.4256-1.3417.16771-.67086.67085-7.9664-4.696-.92243-4.6121-3.522.0839-2.4319 2.935-3.8574 2.6834-1.0901 5.3668-2.1803 3.1027-1.5933 7.7987-2.8511 4.109-1.0901 8.218-2.0964.41928-.0839 1.0063-.0839 2.2641 0 5.283 1.761.0838.33543.41928 1.2578.33543.92243.33543 1.3417 0 .67085-.587 1.0901z"/>
		<path d="m976.18 384.62q-2.348 9.4758-8.6373 24.654-7.3794 17.694-9.4758 24.402-.41929 1.3417-.41929 3.3543.0839 2.7673 0 3.522-.25157 2.935-3.1027 2.935-1.4256.16771-3.1027-1.0063-1.5933-1.0901-1.5094-2.348.25157-6.1216 3.1027-14.004 2.5996-6.7086 5.1991-13.417-5.9538-15.933-10.147-23.312-.25157-.41928-.25157-.83857 0-.92242 1.0063-1.6771 1.0901-.83857 2.0964-.83857.16771 0 3.1866.92243 2.0964 3.1866 4.3606 8.218 1.9287 4.2767 3.7736 8.5534 1.6771-5.0314 3.3543-9.979 1.9287-5.7861 4.2767-9.5597.67086-1.174 2.348-1.174 2.348 0 3.9413 1.5933z"/>
		<path d="m1007.8 416.15q-4.9476 11.153-14.004 13.249-1.0901.25157-2.1803.25157-4.7798 0-9.6436-5.1991-3.2704-3.522-3.2704-9.1404 0-6.2054 3.6897-13.333 1.5933-3.0188 3.8574-5.1991 2.5996-2.5996 4.9476-2.5996 1.3417 0 2.5157 1.0063 1.174 1.0063 6.2893 2.6834 4.0251 1.3417 5.7023 4.5283 2.935 5.6184 2.935 9.6436 0 2.2641-.8386 4.109zm-6.7086-5.1991q-.587-6.1216-3.2704-7.2956-.41929-.16771-.75472-.16771-1.0063 0-2.5157 1.6771-1.6771 1.9287-2.5996 2.2641-.587.25157-1.6771-.50314-1.0901-.75472-1.4256-.75472-.25157 0-.41929.16772-2.935 2.5157-2.935 7.7987 0 3.6058 1.6771 6.1216 2.348 3.4381 3.9413 3.4381 3.6897 0 7.1278-4.6121 3.2704-4.3606 2.8511-8.1341z"/>
		<path d="m1041.8 388.56q-.587 5.87-3.3543 15.681-3.7735 13.166-4.3605 15.933-1.8449 8.4696-7.044 15.43-3.2704 4.4444-7.5471 4.3606-3.7736-.0838-5.6185-4.7798-3.1865-7.8826-3.1865-18.532 0-6.1216 1.174-15.765-.084.83857-.084-5.1991 0-5.1991 4.0252-5.1991.8385 0 1.761.50315 1.0062.41928 1.9287.92242.084 4.2767-.2516 12.579-.4193 8.8888-.4193 12.83 0 4.1928.2516 7.631.1677 1.761 1.5094 6.7086 3.522-3.9413 5.5346-10.482.6708-2.1803 2.6834-11.908 1.5933-7.3794 3.6058-11.572.587-1.174 1.0063-4.4444.4193-3.2704 1.0063-4.5283.9224-2.0126 3.1866-2.0126 2.935 0 4.1928 1.8448z"/>
		<path d="m1089 405.25q-3.1866 6.8763-5.4508 9.1404-3.5219 3.522-3.8574 3.8574-2.4318 1.9287-4.8637 2.348-.3354 1.6771-.3354 3.9413 0 1.5933.2516 4.8637.2515 3.1866.2515 4.696 0 5.7023-2.6834 8.5534 0 0-2.348-1.2579-1.4256-.75471-1.5933-1.8448-.8385-5.4507-.8385-12.159 0-4.4444.5031-13.249.5031-8.805.5031-13.333 0-6.5408-.7547-11.992-.6708.25157-1.2578-.83857t-1.0063-1.2578q.4193-2.6834 1.4256-2.6834 1.2578-.41928 5.1991.16772 10.901 1.761 16.436 9.5597 1.761 2.5157 1.761 5.7023 0 2.7673-1.3417 5.7861zm-5.4508-6.457q.4193-3.3543-2.8511-5.283-.1677 0-6.0377-2.4319.9224 15.43.587 21.635 7.4633-7.044 8.3018-13.92z"/>
		<path d="m1118.7 424.54q-.1677.0839-9.8113 6.9601-5.6184 4.0251-9.979 5.9538-.5031.25158-1.0063.25158-1.174 0-2.1802-1.5094-1.5095-2.0126-1.5933-2.0964-.1677-7.3794.9224-20.545 1.2579-14.004 1.2579-20.21 0-4.2767-.3355-8.0503 1.0902-1.0901 2.7673-1.0901 3.1866 0 3.6897 2.348.2516 6.8763-.587 20.629-.8385 13.669-.6708 20.545 2.348-1.0063 6.1215-3.522 4.109-2.8511 5.9539-3.7736.4193 0 1.4255-.16771 1.0902-.16772 1.5933-.16772 1.6772 0 2.4319 1.3417 1.0063 1.8448 0 3.1027z"/>
		<path d="m1151.2 430.24q.5032 1.3417.5032 2.348 0 1.6771-1.4256 2.935-1.4256 1.2579-1.9287 1.174-4.109-.75471-5.1991-6.6247-1.174-6.3731-2.7673-10.65-2.8512.25157-5.7023.50314-3.2704.41929-5.1153 2.0126-.9224 2.5996-2.4318 9.2243-1.4256 6.1216-2.7673 9.3081-.6709 1.5094-2.8512.83857-2.7672-.92243-2.9349-2.5157-.2516-3.1866 1.8448-8.5534 2.5157-6.1216 2.7673-8.7211.084-.75471-1.0902-1.6771-1.174-.92242-1.174-1.4256 0-.41928.3355-.83857.4193-.50314 1.761-.75471 1.4255-.33543 1.5933-.92243 1.5094-4.1928 4.7798-15.597 2.7673-9.8951 4.9476-15.178.5031-1.174 2.0964-1.174 1.174 0 2.0964.75471 2.348 2.0126 3.0189 6.0377.5031 3.4381.9224 6.8763 4.1928 19.79 8.7211 32.62zm-12.243-16.017q-.2516-3.1027-1.0901-6.9601-.8386-3.3543-1.5933-6.7086-2.5157 6.9601-4.3606 13.92 1.3417-.25158 7.044-.25158z"/>
		<path d="m1181.6 384.62q-2.348 9.4758-8.6373 24.654-7.3794 17.694-9.4758 24.402-.4193 1.3417-.4193 3.3543.084 2.7673 0 3.522-.2516 2.935-3.1027 2.935-1.4256.16771-3.1027-1.0063-1.5933-1.0901-1.5095-2.348.2516-6.1216 3.1027-14.004 2.5996-6.7086 5.1992-13.417-5.9539-15.933-10.147-23.312-.2516-.41928-.2516-.83857 0-.92242 1.0063-1.6771 1.0901-.83857 2.0964-.83857.1677 0 3.1866.92243 2.0964 3.1866 4.3605 8.218 1.9288 4.2767 3.7736 8.5534 1.6772-5.0314 3.3543-9.979 1.9287-5.7861 4.2767-9.5597.6709-1.174 2.348-1.174 2.348 0 3.9413 1.5933z"/>
	</g>
	<g fill="#414042" opacity=".992" stroke="#414042" stroke-width="3.402" aria-label="KERNVILLE" paint-order="markers fill stroke">
		<path d="m283.69 201.51q.45.374.45 1.049 0 .45-.6 2.247-.3-.075-.525-.075-.45 0-1.198.375-.675.374-1.05.374-.374 0-.823-.3-5.02-3.146-15.584-9.44.225 2.773.375 7.942 0 .6.15 1.798.15 1.2.15 1.724 0 1.798-1.574 2.472-.45.3-1.273.3-.9 0-1.124-.525-1.948-.674-2.248-2.622-.899-5.394-.899-12.661 0-2.623.15-7.792.15-5.244.15-7.867 0-7.941-1.05-13.785-.149-.899 1.05-1.199.899-.15 1.873-.3.974.3 2.023.75 1.049.374 1.123 1.273 1.124 10.19.974 16.183 3.072-2.772 7.043-7.342 3.371-3.82 6.668-7.717.899-.374 1.948-.374 2.922 0 3.071 2.023-2.097 4.645-8.24 11.013-7.193 7.417-9.216 10.563 4.645 2.772 9.365 5.545 5.244 3.296 8.84 6.368zm35.735-33.34q-2.772 1.124-8.167 2.623-5.394 1.498-8.166 2.622-.674 1.948-.974 8.69 1.199.45 2.772.45 1.124 0 3.521-.375 2.398-.374 3.522-.374 2.097 0 3.596.899 1.049 1.498 1.049 1.948 0 .524-.525.824-.15.075-1.049 1.049-.6.674-1.498.6-1.573.374-5.769.449-3.521.075-5.619.899-1.423 5.544-1.423 8.765 0 2.173.599 3.447 3.521 2.472 12.212 2.097.6 0 1.274-.524.674-.6 1.123-.6 2.098-.449 2.772 3.147.225 1.199-.45 2.173-.599 1.049-1.797 1.124-9.066.3-15.733-1.424-2.098-.524-3.821-2.322-1.724-1.798-1.948-4.046-.675-6.518 0-11.688-2.098-1.423-1.873-2.772.075-.674 1.124-1.198 1.123-.6 1.273-1.199.15-.6.6-7.117-4.196-.825-4.121-3.147.075-2.173 2.622-3.446l4.795-1.948q2.772-1.424 6.968-2.548 3.67-.973 7.342-1.873.374-.074.899-.074 2.023 0 4.72 1.573.075.3.374 1.124.3.824.3 1.198 0 .6-.524.974zm39.797 37.985q.225.3.225.674 0 1.723-3.596 2.622-3.97-3.072-9.89-9.44-6.592-7.117-9.814-9.89-.224 1.949-.824 10.19-.374 6.218-1.348 9.89-.15 0-.974.374-.75.375-1.274.225-3.296-.75-3.296-4.57 0-1.124.3-2.997.299-2.173.374-2.697.3-4.346.375-10.34v-8.165q0-10.19 1.123-17.157.75-4.645 8.766-4.27 4.046.15 7.042 4.045 2.772 3.596 2.772 7.792 0 3.521-2.622 7.042-2.247 3.147-5.544 4.945-1.348.75-1.348 1.648 0 .974 1.573 2.323l2.397 1.948q.075.075 8.242 7.492 5.17 4.645 7.342 8.316zm-15.807-33.64q.224-1.348.15-2.397-.225-1.573-1.35-2.847-1.048-1.273-3.445-1.273-1.798 0-2.248 1.123-.375 1.873-.375 4.27 0 .975.225 5.02.15 3.072 0 5.02 6.219-4.645 7.043-8.915zm53.281-9.507c-.7 6.693-1.023 10.631-1.672 17.374-.849 7.992-1.273 14.66-1.273 20.004 0 1.748.05 3.471.15 5.17.05.799-.25 1.498-.9 2.097-.599.6-1.298.9-2.097.9-1.549 0-2.847-1.05-3.896-3.147-3.197-6.244-7.168-16.033-11.913-29.37-.1-.299-.224-.449-.374-.449-.35 0-.574.35-.674 1.05-.85 7.142-.949 14.647-.949 22.539 0 3.796-.225 3.37-.025 7.315.05 1.449-.375 2.448-1.274 2.997-.35.35-.724.525-1.124.525-.35 0-.799-.15-1.348-.45-.75-.35-1.224-.574-1.424-.674-.65-.2-1.049-.8-1.199-1.798-.05-.8-.1-1.624-.15-2.473-.15-2.797.293-1.538.293-4.585 0-5.294-.217-11.784.382-19.726.949-12.087 1.122-16 1.222-17.299.05-1.099.974-1.648 2.772-1.648.849-.1 2.098.524 3.746 1.873 1.598 3.047 3.922 5.212 6.27 12.055 2.248 6.543 4.295 11.512 6.143 14.909.75-6.643 1.572-13.903 3.17-27.339.15-.999.874-1.498 2.173-1.498.45 0 .974.075 1.573.225.8.2 1.274.324 1.424.374.5.2.824.55.974 1.05zm41.555 1.045c-1.948 3.646-3.582 9.037-7.178 19.026-1.049 2.947-2.297 7.817-3.746 14.61-1.398 6.493-2.747 8.399-4.046 11.745-.45.5-.974.75-1.573.75-.7 0-1.598-.375-2.697-1.124-1.948-4.645-4.22-9.273-6.818-19.912-2.447-10.14-4.894-17.856-7.342-23.15.65-1.249 1.199-1.873 1.648-1.873.4-.25.8-.375 1.2-.375.798 0 2.197.75 4.195 2.248 1.798 4.095 3.52 9.115 5.17 15.059a1378.3 1378.3 0 003.97 15.358 8492.8 8492.8 0 005.544-18.355c2.198-6.893 3.307-11.41 5.604-16.404.75-1.299 2.048-1.723 3.896-1.274.2.05.45.25.75.6.299.3.674.474 1.123.524.45 0 .674.35.674 1.049 0 .5-.124.999-.374 1.498zm18.734 3.668q.15 2.172.15 4.495 0 5.095-1.049 15.359t-1.049 15.508q0 1.948.075 3.82-.674 2.099-2.922 2.024-3.221-.15-3.52-2.772-.3-2.622-.3-5.544 0-5.095 1.198-15.21 1.274-10.113 1.274-15.133 0-1.948-.15-3.82.75-1.424 2.547-1.424 1.424 0 2.847.824.3-.225.45-.225.225 0 .225.75-.075.898 0 1.048.074.225.224.3zm33.482 29.219q-.15.074-8.766 6.218-5.02 3.596-8.915 5.32-.45.224-.9.224-1.048 0-1.947-1.349-1.349-1.798-1.424-1.873-.15-6.592.824-18.355 1.124-12.512 1.124-18.056 0-3.82-.3-7.192.975-.974 2.473-.974 2.847 0 3.296 2.098.225 6.143-.524 18.43-.75 12.212-.6 18.356 2.098-.9 5.47-3.147 3.67-2.547 5.32-3.371.374 0 1.273-.15.974-.15 1.423-.15 1.499 0 2.173 1.199.899 1.648 0 2.772zm31.345 0q-.15.074-8.766 6.218-5.02 3.596-8.915 5.32-.45.224-.9.224-1.048 0-1.947-1.349-1.349-1.798-1.424-1.873-.15-6.592.825-18.355 1.123-12.512 1.123-18.056 0-3.82-.3-7.192.975-.974 2.473-.974 2.847 0 3.297 2.098.224 6.143-.525 18.43-.75 12.212-.6 18.356 2.099-.9 5.47-3.147 3.671-2.547 5.32-3.371.374 0 1.273-.15.974-.15 1.423-.15 1.499 0 2.173 1.199.899 1.648 0 2.772zm34.175-29.416c-1.779.9-3.28 1.077-6.876 2.076s-6.318 1.873-8.166 2.622c-.45 1.299-.774 4.196-.974 8.69.8.3 1.723.45 2.772.45.75 0 1.923-.124 3.521-.374 1.599-.25 2.773-.375 3.522-.375 1.398 0 2.597.3 3.596.9.7.998 1.049 1.648 1.049 1.947 0 .35-.175.625-.525.824-.1.05-.45.4-1.049 1.05-.4.449-.899.649-1.498.599-1.049.25-2.972.4-5.769.45-2.347.049-4.22.349-5.619.898-.949 3.696-1.423 6.618-1.423 8.766 0 1.448.2 2.597.6 3.446 2.347 1.648 6.417 2.348 12.211 2.098.4 0 .824-.175 1.274-.525.45-.4.824-.599 1.123-.599 1.399-.3 2.323.75 2.773 3.147.15.799 0 1.523-.45 2.172-.4.7-.999 1.074-1.798 1.124-6.044.2-11.288-.275-15.733-1.423-1.399-.35-2.672-1.124-3.821-2.323s-1.798-2.547-1.948-4.046c-.45-4.345-.45-8.24 0-11.687-1.399-.949-2.023-1.873-1.873-2.772.05-.45.424-.85 1.124-1.199.749-.4 1.173-.799 1.273-1.198.1-.4.3-2.773.6-7.118-2.797-.55-4.17-1.598-4.12-3.147.049-1.448.923-2.597 2.621-3.446l4.795-1.948c1.848-.949 4.17-1.798 6.968-2.547 2.447-.65 4.092-.955 6.54-1.554.25-.05.55-.075.899-.075 1.348 0 2.832.485 4.63 1.534.258.183.524.519.724 1.068.2.55.04 1.044.04 1.294 0 .4-.02.697-.357.868z" paint-order="markers fill stroke"/>
	</g>
</svg>
