<svg version="1.1" viewBox="0 0 100 100" xmlns="http://www.w3.org/2000/svg">
	<rect x="1.0847" y="1.8983" width="100" height="100" rx="6" ry="6" fill="#00927f" fill-rule="evenodd"/>
	<g transform="matrix(3.7219 0 0 3.7219 18.911 20.819)" fill="#fafafa" stroke-width=".21673">
		<path d="m11.281.005c-.278.075-.375.5-.156.688l3.187 3.186c.22.23.692.037.688-.281v-3.218a.414.414 0 00-.406-.375h-3.188a.375.375 0 00-.125 0z"/>
		<path d="m1.844.005c-.482.088-.854.533-.844 1v13.995c0 .524.513 1 1.063 1h11.875c.55 0 1.062-.476 1.062-1l-.031-7.59a.975.975 0 00-.281-.72l-6.408-6.403a1.081 1.081 0 00-.75-.28h-5.467a1.331 1.331 0 00-.22 0zm1.156 2h4l3.5 3.498 2.5 2.5v5.997h-10z"/>
		<path d="m5 11h3v.969h-3zm0-2.031h6v1.063h-6zm0-1.938h5v.969h-5zm0-2h3v.969h-3z"/>
	</g>
</svg>
