<svg version="1.1" viewBox="0 0 100 100" xmlns="http://www.w3.org/2000/svg">
	<rect width="100" height="100" rx="6" ry="6" fill="#221b7b"/>
	<g transform="matrix(4.1515 0 0 4.1515 12.974 12.974)" fill="#fff" stroke-width="1.3922">
		<path d="m8 3c-2.75 0-5 2.25-5 5 0 1.783.958 3.363 2.375 4.25a3.4 3.4 0 01.531-.188c.229-1.816 1.72-3.25 3.594-3.25 1.003 0 1.839.474 2.5 1.126.175-.034.308-.126.5-.126h.125c.224-.566.375-1.169.375-1.812 0-2.75-2.25-5-5-5z" overflow="visible"/>
		<path d="m9.5 10a2.5 2.5 0 00-2.5 2.5c0 .218.041.423.094.625a1.549 1.549 0 00-.594-.125 1.5 1.5 0 100 3h8a1.5 1.5 0 100-3 2 2 0 00-2-2c-.316 0-.61.088-.875.219a2.47 2.47 0 00-2.125-1.219zm4.5-3c.138.713.112 1.37 0 2l2-1zm-12 0a5.387 5.387 0 000 2l-2-1zm7-5a5.387 5.387 0 00-2 0l1-2zm-4.535 10.95a5.387 5.387 0 01-1.415-1.414l-.707 2.12zm8.485-8.486a5.387 5.387 0 00-1.414-1.414l2.121-.707zm-9.9 0a5.387 5.387 0 011.415-1.414l-2.122-.707z" overflow="visible"/>
	</g>
</svg>
