<svg version="1.1" viewBox="0 0 100 100" xmlns="http://www.w3.org/2000/svg">
	<g transform="matrix(5.1158 0 0 5.1158 8.4279 -422.62)" stroke-width=".19547">
		<path d="m.802 94.25c.42-.706.963-1.948 1.245-1.846.813-.429 2.081-.605 3.266-.828.803.621 1.483 1.41 2.567 1.65 1.506-.805 2.618-1.058 3.925-1.583 1.656.859 2.73 1.68 3.26 3.015l-2.185 3.128-3.512.97-5.826-.51z" fill="#581123"/>
		<path d="m2.372 97.18c-.001-1.719.822-4.4-.325-4.781.48-.371.977-.415 1.639-.544l1.627-.284c.419 2.183 1.111 4.96 1.823 6.998-.897.16-2.108-.229-3.17-.153-.66-.175-1.215-.647-1.594-1.236zm7.808.89c-.487-2.264.32-3.88-.033-6.017.92.052 1.534-.852 2.342-.26.475 1.167-.167 3.757.39 5.984-1.074.943-1.436.733-2.699.293z" fill="#5e361f"/>
		<path d="m5.313 91.57c-.337.837-.507 2.463-.598 4.462-.118 6.315 5.944-1.727 6.385-4.195-.547.03-.023.516-.953.218-.701 1.162-1.879 4.355-3.178 3.149-.501-.502-.748-2.155-.69-3.45z" fill="#2f428a"/>
		<path d="m3.15 90.25c.114-.57 1.07-.908 2.032-1.244-.102-1.03.08-1.898-.106-3 1.114-1.489 2.66-1.143 4.147-1.051.882 1.548 2.225 2.413 3.733 3.033.418 1.133-.438 1.377-1.44 1.684-2.363.457-5.64 1.028-8.367.577z" fill="#5e361f"/>
		<path d="m6.285 88.93c.336 1.316.971 2.074 1.268 2l3.53-.08c-.303-1.768-.392-2.739-.26-3.335-1.852-.164-3.101.328-4.538 1.415z" fill="#c8b4b3"/>
		<path d="m11.805 91.64c-.059-.557-.079-1.123-.403-1.622-.735-.226-1.533-.252-2.391-.08-.36 1.336-1.862.874-2.392-.046-4.116 2.561 4.55 6.874 5.186 1.748z" fill="#c3c3c3"/>
	</g>
</svg>
