<svg version="1.1" viewBox="0 0 24 24" xmlns="http://www.w3.org/2000/svg">
	<path d="m4.9997 20.498c-1.933 0-3.5-1.567-3.5-3.5s1.567-3.5 3.5-3.5 3.5 1.567 3.5 3.5-1.567 3.5-3.5 3.5zm0-8.5c-2.762 0-5 2.238-5 5 0 2.761 2.238 5 5 5 2.761 0 5-2.239 5-5 0-2.762-2.239-5-5-5zm9.8-2h4.2v-1.8h-3.202l-1.934-3.266c-.296-.5-.841-.834-1.464-.834-.469 0-.894.18999-1.202.49801l-3.697 3.697c-.309.30799-.501.734-.501 1.205 0 .62903.334 1.161.85 1.4716l3.35 2.0284v5h1.8v-6.478l-2.25-1.672 2.32-2.33m5.93 12.98c-1.933 0-3.5-1.567-3.5-3.5s1.567-3.5 3.5-3.5 3.5 1.567 3.5 3.5-1.567 3.5-3.5 3.5zm0-8.5c-2.762 0-5 2.238-5 5 0 2.761 2.238 5 5 5 2.761 0 5-2.239 5-5 0-2.762-2.239-5-5-5zm-3-7.2c.992 0 1.8-.80701 1.8-1.8 0-.993-.808-1.8-1.8-1.8-.995 0-1.8.80701-1.8 1.8 0 .99299.805 1.8 1.8 1.8z" stroke-linejoin="round" stroke-width=".2"/>
</svg>
