<svg version="1.1" viewBox="0 0 100 100" xmlns="http://www.w3.org/2000/svg">
	<path d="m68.502 22.613c0-5.032-8.283-9.109-18.503-9.109-10.217 0-18.501 4.077-18.501 9.109 0 .104.009.206.016.31h-.016v6.929h1.427v4.528h-1.427v20.135h1.427v4.529h-1.427v20.135h1.427v4.53h-1.427v10.435h37.004v-33.475h-5.357v-4.529h5.357v-33.217h-.016c.006-.104.016-.205.016-.31zm-6.085 13.97h-24.835v-1.718h24.835zm0-5.062h-24.835v-10.068h24.835z"/>
	<path d="m73.212 14.932c-1.682-5.328-11.432-9.415-23.212-9.415-11.779 0-21.53 4.087-23.213 9.415-.643.23-1.119 1.072-1.119 2.078 0 .865.354 1.608.86 1.947v75.187h4.093v-72.08h.017c-.007-.104-.017-.209-.017-.313 0-5.094 8.676-9.222 19.378-9.222 10.703 0 19.379 4.128 19.379 9.222 0 .104-.009.209-.017.313h.017v34.731h-5.24v3.067h5.24v34.281h4.093v-75.186c.509-.339.86-1.082.86-1.947 0-1.006-.477-1.848-1.119-2.078zm-6.614 44.008c-.358 0-.65-.292-.65-.65 0-.361.292-.652.65-.652.36 0 .652.291.652.652 0 .358-.292.65-.652.65z"/>
</svg>
