<svg version="1.1" viewBox="0 0 100 110" xmlns="http://www.w3.org/2000/svg">
	<g stroke-width=".811">
		<path d="M10.937 9.581h78.855v82.923H10.937z" fill="#e7e8ea" fill-rule="evenodd"/>
		<path d="m94.902 4.994.075 99.999h-89.677c-.685-33.697.025-70.85 0-99.999 0 0 91.295.701 89.677 0zm-83.242 4.582-.109 37.734c16.047 9.8203 25.685 2.8254 39.098-.042 16.819 8.2076 30.562 1.9259 39.143-.418 0 0-.08-24.889 0-37.274zm-.006 60.39.006 22.103 78.132.43-.147-21.387c0-.332.028-1.031-.268-1.25-6.2536 1.0158-12.073 3.9608-17.505 4.686-6.5125 1.0148-11.866-1.9485-17.145-4.16-3.0338-.55948-6.0931-.83226-9.096-.276-5.155 1.9445-8.6127 3.7044-14.323 4.436-8.0745-.45856-12.684-3.6002-19.654-4.582z" fill="#26472a"/>
		<path d="m89.792 51.493v4.743c-6.9218 1.3465-13.446 4.938-19.07 4.774-3.922.29-7.824-.811-11.285-2.623-4.142-1.965-8.208-1.8922-12.709-1.4872-5.6941 1.5898-10.41 4.0522-15.89 4.2852-8.3798-.14463-10.318-1.8642-19.178-4.385v-5.0664c17.132 9.7047 21.403 4.1399 38.742-.19243 19.245 6.2525 21.207 4.3159 39.391-.048212zm0 8.892v4.984c-5.4438 1.6715-12.728 4.8686-17.96 5.005-3.218.144-6.573.07-9.525-1.409-4.262-2.18-9.007-3.56-13.831-3.246-3.561-.044-6.94 1.095-10.104 2.613-10.027 3.8271-18.371-.44954-26.712-2.534v-4.268c20.086 5.963 21.817 4.6829 35.786-.61942 3.935-.453 8.0408.13142 11.542 1.8974 9.6863 5.0644 12.919 4.5598 30.804-2.423z" fill="#9dd5ec"/>
		<g fill="#26472a">
			<path d="m14.078 13.244c-.042.032.02.408.126.836.189.71.21 1.264.23 6.342.022 5.12.011 5.621-.167 6.186-.105.334-.137.752-.137.752l5.749.083-.336-2.047 2.109-2.853 2.203 3.448-.063 1.452 6.662.084-5.213-8.045 5.14-5.987c-.095-.094-6.725-.052-6.725-.052l-.22.773-3.808 4.931.073-4.868.21704-.983s-4.3279-.09061-5.84-.052zm58.36.136c-1.385.021-1.815.052-1.773.157.41 1.097.42 1.201.42 6.969 0 4.942-.021 5.642-.179 5.997-.1168.29199-.12102.59537-.167.898 1.9633.0016 3.9408.01375 5.896-.052-.30722-1.0585-.39334-2.3316-.315-3.353 1.9674-.19485 4.1331-.06514 6.042-.45.609-.313 2.57-2.016 2.875-2.497.23-.366.241-.47.241-2.424 0-2.487 0-2.497-1.353-3.636-2.12-1.787-1.878-1.724-6.41-1.672-1.899.01-4.28.042-5.277.063zm6.525 3.48c1.091.187 1.48.71 1.406 1.88-.073 1.358-.598 1.693-2.665 1.745l-1.384.042c-.14757-1.1169-.10282-2.2601-.021-3.365 1.002-.58161 1.743-.52126 2.664-.303zm-26.405-3.145c.01.083.094.438.178.783l-.052 12.193c-.115.408-.178.763-.147.794l12.589-.125c.126-.167.944-3.49.87-3.563-.02-.031-.398.02-.828.105-1.133.208-6.861.334-7.081.146-.26055-.65108-.125-1.0926-.011-1.85l6.001-.104c.094-.24.063-3.343-.042-3.406-.042-.032-.41.01-.808.083-1.9071.20529-3.1268.13419-5.13.116-.08212-.63821.000174-1.3776.074-1.944 2.4033-.15234 4.8459-.08064 7.217.167-.05904-1.2499-.33351-2.3872-.692-3.562-4.5641-.0065-7.5303-.04187-12.138.167zm-18.013-.105c0 .052.095.439.2.857.199.72.199 1.086.168 6.248-.032 4.607-.063 5.569-.2 5.997-.325 1.003-.996.899 6.074.899 4.91 0 6.253-.032 6.284-.136.063-.178.819-3.344.84-3.469.01-.136-.168-.125-1.459.094-.818.146-1.573.178-3.462.157-1.321-.021-2.528-.052-2.685-.073-.283-.042-.294-.063-.325-.794-.021-.408-.01-.847.01-.983l.042-.25 2.79.041c1.532.021 2.865.063 2.949.084.136.042.157-.209.188-1.755.021-1.4 0-1.797-.105-1.797-.073 0-.346.052-.608.125-.283.063-1.374.104-2.728.094-1.238 0-2.318-.01-2.392-.01-.104 0-.125-.23-.104-.972l.031-.961 2.728-.032c2.245-.02 2.874 0 3.598.147.472.094.892.156.913.125.063-.063-.451-3.166-.588-3.51l-.094-.23h-6.032c-3.903 0-6.033.03-6.033.104zm45.604 16.362c-.032.031.042.324.168.648.36412 2.1635.29055 3.106.136 5.632-2.8755-2.6692-3.5707-3.4657-6.284-6.238-1.3237-.01113-2.6621-.0039-3.976.062-.042.032.021.377.126.753.17969 4.3048.45468 7.1586-.15359 12.311-.3346.40422-.29741.36282 2.8816.34182 1.563-.01 2.853-.053 2.884-.094.021-.032-.052-.366-.157-.721-.30679-2.1248-.31138-3.2465-.094-5.548 2.1466 1.9492 4.448 4.3873 6.315 6.269l1.794-.021 1.794-.032c.12204-4.1586-.30055-8.4208.094-12.537.305-.962.535-.889-2.643-.889-1.553 0-2.843.032-2.885.063zm-29.049.251.052.292c.032.157.105.47.158.7.03504 3.9287.56616 7.508.021 11.441-.116.376-.21.742-.21.805 1.9603.23868 3.2307.17144 5.581.073-.27709-1.2389-.31416-2.7027-.283-3.751.71002-.02048 1.42-.04177 2.13-.063 1.507 3.4532 1.9547 3.8726 4.51 3.814 1.542-.042 2.822-.084 2.833-.094-1.1164-1.6386-1.8642-3.0492-2.76-4.776.7901-.54175 1.4237-1.3127 1.931-2.036.147-.523.147-2.895 0-3.428-.94496-1.3576-2.1037-2.2823-3.504-3.019-3.5748-.03002-7.4273.01022-10.459.042zm8.12 3.155c.22.063.545.282.713.47.273.303.315.44.315.962 0 .72-.158 1.076-.64 1.43-1.2253.41425-1.6782.23201-3.189.2-.05125-1.0229-.04694-2.1398.073-3.104.21-.125 2.266-.104 2.728.042zm-44.922-3.103c0 .031.095.387.2.784.188.679.21 1.138.22 5.934.02 4.681 0 5.256-.168 5.851-.094.356-.157.68-.115.71.084.084 5.308.116 5.434.032.02998-.61863-.15925-1.271-.241-1.891.3518-1.2693.99914-1.7837 1.699-2.623 1.1579.72288 1.0721.99107 1.815 2.153.60153.99807.53165 1.3508.545 2.424 2.095.0073 4.2132.03596 6.295-.052.032-.042-.22-.44-.556-.868-.50081-.68482-.98004-1.3852-1.437-2.1-.57868-.91478-1.1664-1.8238-1.763-2.727-.38515-.59197-.75921-1.1911-1.122-1.797-.2-.376-.2-.376.01-.648.399-.512 2.875-3.176 3.871-4.179l.997-1.003-3.242-.031c-1.783-.01-3.262 0-3.283.02-.97588 2.9096-1.7137 3.1296-3.756 5.538-.23154-1.5115-.15153-3.0877 0-4.587.262-1.097.535-.992-2.623-.992-1.531 0-2.78.02-2.78.052zm19.649.135c-.031.074.021.377.105.68.147.46.168 1.348.19 5.872.02131 2.2247.05514 4.4938-.263 6.645.094.157 11.76.104 11.886-.052.57777-1.2193.55664-3.0243.399-3.406-2.7731.41322-4.3499.29554-7.155.261-.11588-.62652.0308-1.4508.126-1.912.283-.136 4.742-.084 5.098.062.168.074.346.105.399.063.115-.073.126-3.354.01-3.427-.052-.031-.346.01-.66.094-.703.188-4.763.22-4.868.042-.126-.199-.158-1.65-.042-1.724.063-.031 1.164-.094 2.444-.115 2.13-.052 2.738-.01 4.217.24l.326.063-.137-.773c-.346-1.933-.503-2.654-.608-2.717-.063-.041-2.654-.073-5.77-.062-4.574.02-5.655.052-5.697.167zm-17.865 47.029c-.67842.44556-1.202.92995-1.826 1.462-.105.094-.283.366-.388.617-.178.407-.2.742-.2 3.26 0 3.29.032 3.427.955 4.179.66699.62814 1.2824 1.0333 2.015 1.494l2.99-.02c3.451-.022 3.178.051 4.594-1.213.987-.877 1.196-1.201 1.196-1.86 0-.47-.01-.49-.283-.49-1.2318-.15632-2.469-.40848-3.724-.565-.042.031-.084.199-.084.366 0 .543-.462.898-1.28.982-1.083.05719-1.6065-.09759-2.287-.763v-4.096l.693-.752.986-.01c1.342-.01 1.7.188 1.836 1.013.073.387.083.397.409.335.93713-.15525 1.8554-.28999 2.79-.46 1.007-.199 1.06-.261.84-1.087-.126-.45-.368-.731-1.532-1.755-.944-.846-.913-.836-4.322-.836-2.728.01-3.043.031-3.378.199zm12.808.449c.18.606.2 1.034.2 5.057 0 3.573-.031 4.493-.157 4.91-.084.283-.116.544-.074.586.053.052 2.036.073 4.427.062l4.333-.031.346-1.567c.19-.857.336-1.568.326-1.588-.021-.01-.315.041-.65.125-.42.104-1.26.146-2.53.157h-1.898l-.084-3.532c-.063-3.103-.052-3.594.095-4.022.293-.868.45-.805-2.183-.805h-2.35zm12.453-.596c-.02.032.032.303.126.606.158.46.2 1.18.252 4.911.063 3.897.053 4.44-.105 4.994-.094.345-.157.638-.136.659s2.308.062 5.088.104l5.035.073.284-1.233c.43-1.85.44-1.766-.19-1.724-.282.021-.692.073-.89.115-.284.063-4.827.042-4.9-.031-.063-.063-.095-1.421-.032-1.526.084-.135 3.997-.094 4.553.053l.305.083-.063-1.442c-.042-.794-.084-1.462-.105-1.473-.01-.02-.21.01-.44.063-.525.125-4.04.136-4.229.01-.094-.052-.125-.292-.104-.804l.031-.721 2.308.01c1.374 0 2.539.053 2.874.126.315.073.598.104.63.073-.08764-1.1134-.23872-1.8094-.441-2.853l-1.06-.052c-1.321-.083-8.707-.094-8.79-.02zm17.184.721c-.36338 3.0591-1.68 6.4823-3.011 9.811-.167.303-.304.606-.304.669 1.6968.23864 2.8146.16725 4.847.083-.09769-.68296-.01052-1.3949.136-1.985l2.067-.031c2.455-.031 2.35-.094 2.318 1.306l-.02.867c1.6711.000677 3.3681.0152 5.025-.052 0-.032-.158-.314-.357-.617-1.4294-3.4237-3.9596-8.7192-3.421-10.051.043-.282.064-.543.043-.585-2.6069-.11773-4.5928-.083-7.396-.083zm4.91 5.83c-.83525.12123-1.4826.084-2.381.084.23956-1.2366.64107-2.441 1.028-3.637.58543.98355.95054 1.9654 1.353 3.553zm9.431-5.558c.10649 3.848.34579 7.1902-.01 10.396.02.031 1.122.084 2.423.125 2.654.073 2.507.115 2.235-.658-.158-.47-.326-4.41-.19-4.618 2.5411 2.2171 3.0691 2.8642 5.404 5.308h3.126c.14814-3.6519-.01882-7.2877-.021-10.626l.2-.638c-1.5889-.18522-3.2576-.13008-4.837-.052-.032.052.031.418.147.815.27793 1.7192.2521 2.6765.105 4.482-2.7644-2.6304-2.7903-2.7215-5.34-5.37h-3.483c.04413.28867.15995.56713.241.836z"/>
		</g>
		<g fill="#9dd5ec">
			<g aria-label="PLEASE KEEP OUR RIVER CLEAN!">
				<path d="m10.753 98.299h.904v-1.062h.298c.983 0 1.631-.536 1.631-1.348 0-.755-.554-1.203-1.479-1.203h-1.354zm1.28-2.822c.367 0 .612.198.612.5 0 .292-.204.469-.528.469h-.46v-.969zm1.997 2.822h2.405v-.797h-1.5v-2.816h-.905zm2.808 0h2.603v-.791h-1.699v-.646h1.553v-.791h-1.553v-.594h1.7v-.791h-2.604zm2.84 0h.967l.22-.744h1.265l.235.744h.999l-1.24-3.613h-1.154zm1.433-1.557.376-1.26.392 1.26zm3.7 1.618c.962 0 1.495-.458 1.495-1.181 0-1.328-1.792-.927-1.792-1.463 0-.182.203-.281.559-.281.293 0 .617.052.873.14l.25-.718a2.777 2.777 0 00-1.076-.214c-.92 0-1.547.48-1.547 1.208 0 1.229 1.782.88 1.782 1.437 0 .167-.157.26-.507.26-.33 0-.727-.062-1.087-.213l-.251.74a3.33 3.33 0 001.301.285zm1.971-.061h2.603v-.791h-1.699v-.646h1.553v-.791h-1.553v-.594h1.7v-.791h-2.604zm4.028 0h.93v-1.786l1.15 1.786h1.213l-1.328-1.947 1.244-1.666h-1.092l-1.187 1.63v-1.63h-.93zm3.578 0h2.603v-.791h-1.699v-.646h1.553v-.791h-1.553v-.594h1.699v-.791h-2.603zm3.186 0h2.603v-.791h-1.699v-.646h1.553v-.791h-1.553v-.594h1.699v-.791h-2.603zm3.186 0h.904v-1.062h.298c.982 0 1.63-.536 1.63-1.348 0-.755-.553-1.203-1.479-1.203h-1.353zm1.28-2.822c.366 0 .612.198.612.5 0 .292-.204.469-.528.469h-.46v-.969zm4.433 2.883c1.134 0 1.887-.75 1.887-1.879 0-1.104-.732-1.838-1.83-1.838-1.124 0-1.871.755-1.871 1.89 0 1.099.727 1.827 1.814 1.827zm.057-.78c-.559 0-.93-.438-.93-1.099 0-.635.35-1.057.873-1.057.57 0 .946.443.946 1.11 0 .63-.355 1.046-.889 1.046zm3.78.78c.987 0 1.625-.609 1.625-1.546v-2.119h-.894v2.223c0 .417-.235.661-.632.661-.466 0-.737-.286-.737-.765v-2.119h-.905v2.171c0 .932.58 1.494 1.542 1.494zm2.242-.061h.904v-1.234h.403l.705 1.234h1.088l-.905-1.421c.408-.219.654-.61.654-1.099 0-.697-.502-1.093-1.354-1.093h-1.495zm1.37-2.827c.339 0 .538.161.538.432 0 .245-.147.396-.413.396h-.591v-.828zm2.927 2.827h.904v-1.234h.403l.705 1.234h1.088l-.905-1.421c.408-.219.654-.61.654-1.099 0-.697-.502-1.093-1.354-1.093h-1.495zm1.37-2.827c.34 0 .538.161.538.432 0 .245-.147.396-.413.396h-.59v-.828zm2.091 2.827h.92v-3.613h-.92zm2.544 0h.967l1.29-3.613h-.935l-.8 2.54-.747-2.54h-1.056zm2.592 0h2.603v-.791h-1.7v-.646h1.553v-.791h-1.552v-.594h1.699v-.791h-2.603zm3.185 0h.905v-1.234h.402l.706 1.234h1.087l-.904-1.421c.408-.219.653-.61.653-1.099 0-.697-.502-1.093-1.354-1.093h-1.495zm1.37-2.827c.34 0 .538.161.538.432 0 .245-.146.396-.413.396h-.59v-.828zm4.581 2.888c.397 0 .847-.104 1.124-.255l-.199-.65c-.209.073-.476.114-.706.114-.731 0-1.15-.427-1.15-1.13 0-.66.372-1 1.035-1 .288 0 .617.053.816.136l.25-.708a2.6 2.6 0 00-1.055-.224c-1.171 0-1.987.75-1.987 1.885 0 1.098.764 1.832 1.872 1.832zm1.605-.061h2.405v-.797h-1.5v-2.816h-.905zm2.807 0h2.603v-.791h-1.699v-.646h1.553v-.791h-1.553v-.594h1.699v-.791h-2.603zm2.841 0h.967l.22-.744h1.265l.235.744h.998l-1.239-3.613h-1.155zm1.432-1.557.377-1.26.392 1.26zm2.618 1.557h.857v-2.374l1.506 2.374h1.014v-3.613h-.868l-.01 2.353-1.464-2.353h-1.035zm4.053-1.389h.7l.094-2.224h-.888zm.34 1.441c.334 0 .554-.24.554-.551 0-.334-.22-.573-.554-.573s-.555.24-.555.573c0 .312.22.551.555.551z"/>
			</g>
			<g aria-label="www.kernriverconservancy.org">
				<path d="m11.209 102.41h.42l.207-.766.233.766h.45l.464-1.276h-.439l-.238.794-.22-.789h-.425l-.217.812-.217-.817h-.489z"/>
				<path d="m13.414 102.41h.42l.207-.766.233.766h.45l.465-1.276h-.44l-.237.794-.22-.789h-.426l-.217.812-.217-.817h-.488z"/>
				<path d="m15.62 102.41h.42l.207-.766.232.766h.45l.465-1.276h-.44l-.237.794-.22-.789h-.426l-.217.812-.216-.817h-.49zm2.123.036c.168 0 .278-.12.278-.275 0-.167-.11-.287-.278-.287s-.277.12-.277.287c0 .156.11.275.277.275zm.508-.036h.445v-.628l.363.628h.575l-.45-.706.408-.57h-.52l-.376.57v-1.218h-.445zm2.129.036c.157 0 .321-.028.483-.083l-.099-.304a.96.96 0 01-.314.054c-.19 0-.305-.062-.35-.205h.769c.01-.065.018-.13.018-.198 0-.373-.214-.591-.58-.591-.405 0-.675.265-.675.666 0 .412.283.661.748.661zm-.105-.997c.118 0 .186.073.186.198h-.376c.02-.13.086-.198.19-.198zm.827.961h.452v-.776a.344.344 0 01.254-.115c.068 0 .146.019.201.047l.102-.385a.478.478 0 00-.617.15l-.039-.197h-.353zm1.136 0h.452v-.833a.286.286 0 01.186-.068c.123 0 .177.068.177.21v.69h.453v-.739c0-.349-.17-.552-.46-.552a.54.54 0 00-.41.183l-.071-.167h-.327zm1.519 0h.452v-.776a.344.344 0 01.254-.115c.067 0 .146.019.2.047l.103-.385a.478.478 0 00-.617.15l-.04-.197h-.352zm1.371-1.439c.154 0 .259-.104.259-.258 0-.156-.105-.26-.26-.26-.153 0-.258.104-.258.26 0 .154.105.258.259.258zm-.228 1.45h.453v-1.276h-.453zm1.072-.011h.452l.497-1.276h-.455l-.258.849-.23-.849h-.497zm1.718.036c.157 0 .322-.028.484-.083l-.1-.304a.96.96 0 01-.313.054c-.191 0-.306-.062-.35-.205h.768c.01-.065.018-.13.018-.198 0-.373-.214-.591-.58-.591-.405 0-.674.265-.674.666 0 .412.282.661.747.661zm-.105-.997c.118 0 .186.073.186.198h-.376c.02-.13.086-.198.19-.198zm.827.961h.453v-.776a.344.344 0 01.253-.115c.068 0 .146.019.201.047l.102-.385a.478.478 0 00-.617.15l-.039-.197h-.353zm1.738.036c.156 0 .29-.03.423-.098l-.1-.305a.598.598 0 01-.227.044c-.212 0-.332-.112-.332-.312 0-.18.097-.281.29-.281.086 0 .191.018.27.044l.09-.349a1.041 1.041 0 00-.383-.07c-.445 0-.727.266-.727.687 0 .404.259.64.695.64zm1.18 0c.43 0 .717-.275.717-.687 0-.388-.262-.64-.67-.64-.43 0-.718.276-.718.69 0 .385.261.637.671.637zm.03-.374c-.152 0-.241-.11-.241-.292 0-.18.083-.286.227-.286.152 0 .24.112.24.302 0 .174-.083.276-.227.276zm.873.338h.452v-.833a.286.286 0 01.186-.068c.123 0 .178.068.178.21v.69h.452v-.739c0-.349-.17-.552-.46-.552a.54.54 0 00-.41.183l-.071-.167h-.327zm1.963.036c.387 0 .607-.158.607-.434 0-.487-.685-.339-.685-.484 0-.045.063-.07.188-.07.102 0 .228.018.356.049l.086-.326a1.619 1.619 0 00-.45-.062c-.397 0-.611.15-.611.43 0 .491.669.32.669.476 0 .05-.07.083-.183.083a1.37 1.37 0 01-.408-.078l-.097.32c.147.06.343.096.528.096zm1.453 0c.156 0 .321-.028.483-.083l-.1-.304a.96.96 0 01-.313.054c-.19 0-.306-.062-.35-.205h.768c.01-.065.019-.13.019-.198 0-.373-.215-.591-.58-.591-.406 0-.675.265-.675.666 0 .412.282.661.748.661zm-.105-.997c.118 0 .186.073.186.198h-.377c.021-.13.086-.198.191-.198zm.826.961h.453v-.776a.344.344 0 01.254-.115c.068 0 .146.019.2.047l.103-.385a.478.478 0 00-.617.15l-.04-.197h-.352z"/>
				<path d="m37.835 102.41h.453l.496-1.276h-.455l-.258.849-.23-.849h-.497zm1.434.036a.504.504 0 00.392-.161l.047.135h.327v-.708c0-.385-.215-.593-.633-.593-.198 0-.407.047-.57.125l.105.304c.133-.046.256-.07.369-.07.177 0 .282.06.287.172-.533.013-.776.14-.776.411 0 .232.175.385.452.385zm.003-.45c0-.08.088-.114.321-.122v.177a.258.258 0 01-.167.06c-.092 0-.154-.047-.154-.115zm1.006.414h.452v-.833a.286.286 0 01.186-.068c.122 0 .177.068.177.21v.69h.452v-.739c0-.349-.17-.552-.46-.552a.54.54 0 00-.41.183l-.07-.167h-.327zm2.118.036c.156 0 .29-.03.423-.098l-.1-.305a.598.598 0 01-.227.044c-.211 0-.332-.112-.332-.312 0-.18.097-.281.29-.281.087 0 .191.018.27.044l.091-.349a1.041 1.041 0 00-.384-.07c-.444 0-.727.266-.727.687 0 .404.259.64.696.64zm.7.529h.491l.199-.565.483-1.275h-.45l-.253.851-.23-.851h-.5l.492 1.275zm1.52-.529c.167 0 .277-.12.277-.275 0-.167-.11-.287-.277-.287s-.277.12-.277.287c0 .156.11.275.277.275zm1.085 0c.429 0 .716-.275.716-.687 0-.388-.261-.64-.669-.64-.431 0-.719.276-.719.69 0 .385.262.637.672.637zm.029-.374c-.152 0-.24-.11-.24-.292 0-.18.083-.286.227-.286.151 0 .24.112.24.302 0 .174-.083.276-.227.276zm.876.338h.452v-.776a.344.344 0 01.254-.115c.068 0 .146.019.201.047l.102-.385a.478.478 0 00-.617.15l-.039-.197h-.353zm1.591.036a.48.48 0 00.334-.13v.1c0 .158-.117.249-.319.249a.931.931 0 01-.337-.07l-.086.333c.144.065.287.096.444.096.442 0 .737-.245.737-.609v-1.27h-.321l-.045.117a.44.44 0 00-.35-.143c-.353 0-.596.268-.596.677 0 .395.228.65.539.65zm-.079-.671c0-.177.081-.281.217-.281.081 0 .15.034.196.099v.4a.248.248 0 01-.19.079c-.14 0-.223-.11-.223-.297z"/>
			</g>
			<g aria-label="#KEEPKERNCLEAN">
				<path d="m67.203 102.74h.42v-.393h.348v.393h.418v-.393h.243v-.326h-.243v-.377h.243v-.326h-.243v-.385h-.418v.385h-.348v-.385h-.42v.385h-.256v.326h.256v.377h-.256v.326h.256zm.42-.719v-.377h.348v.377zm1.245.719h.466v-.893l.575.893h.606l-.664-.974.622-.833h-.546l-.593.815v-.815h-.466zm1.79 0h1.301v-.396h-.85v-.323h.777v-.396h-.776v-.296h.85v-.396h-1.302zm1.592 0h1.302v-.396h-.85v-.323h.777v-.396h-.776v-.296h.85v-.396h-1.303zm1.593 0h.453v-.531h.149c.49 0 .815-.269.815-.675 0-.377-.277-.6-.74-.6h-.677zm.64-1.411c.184 0 .307.099.307.25 0 .145-.102.234-.264.234h-.23v-.484zm1.001 1.411h.466v-.893l.575.893h.606l-.664-.974.622-.833h-.546l-.593.815v-.815h-.466zm1.79 0h1.301v-.396h-.85v-.323h.777v-.396h-.776v-.296h.85v-.396h-1.302zm1.593 0h.452v-.617h.201l.353.617h.543l-.452-.711a.603.603 0 00.327-.55c0-.348-.25-.546-.677-.546h-.747zm.684-1.414c.17 0 .27.08.27.216 0 .122-.074.198-.207.198h-.295v-.414zm1.046 1.414h.428v-1.187l.753 1.187h.507v-1.807h-.434l-.005 1.177-.732-1.177h-.517zm2.863.024c.199 0 .423-.052.562-.127l-.1-.326a1.14 1.14 0 01-.352.058c-.366 0-.575-.214-.575-.565 0-.33.185-.5.517-.5.144 0 .309.026.408.068l.125-.354a1.3 1.3 0 00-.527-.112c-.586 0-.994.374-.994.942 0 .55.382.916.936.916zm.803-.024h1.202v-.399h-.75v-1.408h-.452zm1.404 0h1.301v-.396h-.85v-.323h.777v-.396h-.776v-.296h.85v-.396h-1.302zm1.42 0h.483l.11-.373h.632l.118.373h.5l-.62-1.807h-.578zm.716-.779.188-.63.196.63zm1.309.779h.428v-1.187l.753 1.187h.507v-1.807h-.434l-.005 1.177-.732-1.177h-.517z"/>
			</g>
		</g>
	</g>
</svg>
